<svg xmlns="http://www.w3.org/2000/svg" xmlns:xlink="http://www.w3.org/1999/xlink" width="19.566" height="37.81" viewBox="0 0 19.566 37.81">
  <defs>
    <clipPath id="clip-path">
      <path id="path5280" d="M0-682.665H19.566v37.81H0Z" transform="translate(0 682.665)" fill="#a39d81"/>
    </clipPath>
  </defs>
  <g id="svgexport-7_-_2023-01-06T112822.390" data-name="svgexport-7 - 2023-01-06T112822.390" transform="translate(-8.336 -0.002)">
    <g id="g5274" transform="translate(8.336 0.002)">
      <g id="g5276">
        <g id="g5278" clip-path="url(#clip-path)">
          <g id="g5284" transform="translate(8.272 19.486)">
            <path id="path5286" d="M0-30a1.759,1.759,0,0,1,1.759-1.759h0A1.759,1.759,0,0,1,3.518-30v3.444" transform="translate(0 31.764)" fill="none" stroke="#a39d81" stroke-linecap="round" stroke-linejoin="round" stroke-miterlimit="10" stroke-width="1.5"/>
          </g>
          <g id="g5288" transform="translate(11.79 19.486)">
            <path id="path5290" d="M0-40.729v-.629a1.759,1.759,0,0,1,1.759-1.759h0a1.759,1.759,0,0,1,1.759,1.759v.834" transform="translate(0 43.117)" fill="none" stroke="#a39d81" stroke-linecap="round" stroke-linejoin="round" stroke-miterlimit="10" stroke-width="1.5"/>
          </g>
          <g id="g5292" transform="translate(4.753 12.022)">
            <path id="path5294" d="M0-257.443v-13.336a1.759,1.759,0,0,1,1.759-1.759h0a1.759,1.759,0,0,1,1.759,1.759v10.908" transform="translate(0 272.538)" fill="none" stroke="#a39d81" stroke-linecap="round" stroke-linejoin="round" stroke-miterlimit="10" stroke-width="1.5"/>
          </g>
          <g id="g5296" transform="translate(1.46 23.331)">
            <path id="path5298" d="M-56.169-234.318l-2.956-6.3a3.565,3.565,0,0,1,.282-3.523l2.671-3.915" transform="translate(59.462 248.057)" fill="none" stroke="#a39d81" stroke-linecap="round" stroke-linejoin="round" stroke-miterlimit="10" stroke-width="1.5"/>
          </g>
          <g id="g5300" transform="translate(15.309 20.783)">
            <path id="path5302" d="M0-66.627v-2.147a1.759,1.759,0,0,1,1.759-1.759h0a1.759,1.759,0,0,1,1.759,1.759V-62.6a16.924,16.924,0,0,1-.775,5.064L1.711-54.245" transform="translate(0 70.533)" fill="none" stroke="#a39d81" stroke-linecap="round" stroke-linejoin="round" stroke-miterlimit="10" stroke-width="1.5"/>
          </g>
          <g id="g5308" transform="translate(9.079 11.371)">
            <path id="path5310" d="M-130.986,0V3.175a1.551,1.551,0,0,1-1.551,1.551h-6.129" transform="translate(138.666)" fill="none" stroke="#a39d81" stroke-linecap="round" stroke-linejoin="round" stroke-miterlimit="10" stroke-width="1.5"/>
          </g>
          <g id="g5312" transform="translate(1.399 0.737)">
            <path id="path5314" d="M-52.269-261.972h-1.514a1.551,1.551,0,0,1-1.551-1.551v-12.259a1.551,1.551,0,0,1,1.551-1.551h12.259a1.551,1.551,0,0,1,1.551,1.551v3.175" transform="translate(55.333 277.333)" fill="none" stroke="#a39d81" stroke-linecap="round" stroke-linejoin="round" stroke-miterlimit="10" stroke-width="1.5"/>
          </g>
          <g id="g5324" transform="translate(6.613 5.339)">
            <path id="path5326" d="M-106.928,0l-4.2,4.2L-113.2,2.135" transform="translate(113.197)" fill="none" stroke="#a39d81" stroke-linecap="round" stroke-linejoin="round" stroke-miterlimit="10" stroke-width="1.5"/>
          </g>
          <g id="g5332" transform="translate(16.759 8.417)">
            <path id="path5334" d="M0,0H0" fill="none" stroke="#a39d81" stroke-linecap="round" stroke-linejoin="round" stroke-miterlimit="10" stroke-width="1.5"/>
          </g>
        </g>
      </g>
    </g>
  </g>
</svg>
