<svg xmlns="http://www.w3.org/2000/svg" width="34.701" height="37.049" viewBox="0 0 34.701 37.049">
  <g id="Vehicle_Service_" data-name="Vehicle  Service " transform="translate(-39.634 -24.997)">
    <path id="Path_1340" data-name="Path 1340" d="M41.242,309.41a.547.547,0,0,0,.557.477h7.217a.538.538,0,0,0,.537-.7l-.923-3.024,2.876-1.817a1.666,1.666,0,0,1,1.211-.154l.035.008,6.007,1.107a7.887,7.887,0,0,0,4.874-.688.547.547,0,0,0,.069-.04l10.389-7.133a.561.561,0,0,0,.163-.752,2.965,2.965,0,0,0-3.953-1.081l-.1.052a2.548,2.548,0,0,0-2.977-.684l-.013.007-.351.189a3.288,3.288,0,0,0-3.7-.291l-2.224,1.21H57.968a4.212,4.212,0,0,1-1.824-.419l-.412-.2a7.182,7.182,0,0,0-7.475.73l-.036.029-.995.886a3.338,3.338,0,0,1-1.152.669l-.532-1.762a.577.577,0,0,0-.537-.414H40.2a.578.578,0,0,0-.42.206.561.561,0,0,0-.137.44Zm26.5-13.432a1.369,1.369,0,0,1,1.423.247l-3.795,2.047-.117.062a3.527,3.527,0,0,0-.43-.783Zm-4.038-.112.013-.007a2.164,2.164,0,0,1,2.022-.077l-1.756.946a3.519,3.519,0,0,0-.982-.48Zm-15.729,2.093.977-.87a6.064,6.064,0,0,1,6.293-.6l.412.2a5.342,5.342,0,0,0,2.312.531h4a2.413,2.413,0,0,1,2.336,1.818l-2.748-.125a17.422,17.422,0,0,0-3.173.146.561.561,0,1,0,.154,1.112,16.322,16.322,0,0,1,2.968-.137l3.408.154h.025a.561.561,0,0,0,.561-.561c0-.05,0-.1,0-.149l.4-.213,4.937-2.664a1.843,1.843,0,0,1,2.124.262L63.1,303.629a6.756,6.756,0,0,1-4.139.573l-5.989-1.1a2.785,2.785,0,0,0-2.026.276l-.026.015-2.63,1.663L46.4,298.864a4.463,4.463,0,0,0,1.571-.9Zm-3.383-1.223,3.667,12.029H42.3l-1.467-12.029Z" transform="translate(0 -247.841)" fill="#a39d81"/>
    <path id="Path_1341" data-name="Path 1341" d="M89.442,435.768a1.524,1.524,0,1,0-1.524-1.524A1.524,1.524,0,0,0,89.442,435.768Zm0-1.924a.4.4,0,1,1-.4.4A.4.4,0,0,1,89.442,433.844Z" transform="translate(-44.412 -375.028)" fill="#a39d81"/>
    <path id="Path_1342" data-name="Path 1342" d="M139.507,36.212l1.523.147a7.543,7.543,0,0,0,.754,1.792l-.967,1.168a.561.561,0,0,0,.035.755l1.827,1.827a.561.561,0,0,0,.755.035l1.171-.97a7.681,7.681,0,0,0,1.788.756l.147,1.528a.566.566,0,0,0,.559.512h2.59a.566.566,0,0,0,.559-.513l.147-1.526a7.547,7.547,0,0,0,1.791-.755l1.168.967a.561.561,0,0,0,.755-.036l1.826-1.827a.561.561,0,0,0,.036-.755L155,38.147a7.679,7.679,0,0,0,.756-1.789l1.5-.147a.561.561,0,0,0,.507-.559v-2.59a.561.561,0,0,0-.507-.559l-1.523-.147a7.543,7.543,0,0,0-.754-1.792l.967-1.168a.561.561,0,0,0-.033-.752l-1.8-1.827a.561.561,0,0,0-.757-.038l-1.171.97A7.681,7.681,0,0,0,150.395,27l-.147-1.507a.547.547,0,0,0-.56-.491H147.1a.547.547,0,0,0-.559.491L146.394,27a7.531,7.531,0,0,0-1.791.75l-1.168-.969a.561.561,0,0,0-.755.034l-1.827,1.826a.561.561,0,0,0-.035.755l.97,1.171a7.681,7.681,0,0,0-.756,1.788l-1.524.147a.561.561,0,0,0-.508.559v2.59A.561.561,0,0,0,139.507,36.212Zm.615-2.638,1.411-.136a.561.561,0,0,0,.495-.44,6.571,6.571,0,0,1,.918-2.173.561.561,0,0,0-.039-.662l-.9-1.086,1.1-1.1,1.086.9a.561.561,0,0,0,.669.035,6.366,6.366,0,0,1,2.166-.913.543.543,0,0,0,.44-.478l.136-1.4h1.57l.136,1.4a.552.552,0,0,0,.44.486,6.561,6.561,0,0,1,2.173.913.561.561,0,0,0,.662-.041l1.084-.9,1.085,1.1-.9,1.088a.561.561,0,0,0-.035.669A6.367,6.367,0,0,1,154.735,33a.561.561,0,0,0,.495.44l1.411.136v1.571l-1.389.136a.561.561,0,0,0-.494.44,6.57,6.57,0,0,1-.917,2.173.561.561,0,0,0,.039.662l.9,1.086-1.1,1.1-1.086-.9a.561.561,0,0,0-.669-.035,6.366,6.366,0,0,1-2.166.913.567.567,0,0,0-.44.5l-.136,1.417h-1.57l-.136-1.417a.564.564,0,0,0-.44-.5,6.575,6.575,0,0,1-2.173-.918.561.561,0,0,0-.662.039l-1.086.9-1.1-1.1.9-1.086a.561.561,0,0,0,.035-.67,6.367,6.367,0,0,1-.913-2.166.561.561,0,0,0-.495-.44l-1.411-.136Z" transform="translate(-91.398 0)" fill="#a39d81"/>
    <path id="Path_1343" data-name="Path 1343" d="M191.873,83.057a5.6,5.6,0,1,0-5.6-5.6,5.6,5.6,0,0,0,5.6,5.6Zm0-10.084a4.481,4.481,0,1,1-4.481,4.481,4.481,4.481,0,0,1,4.481-4.481Z" transform="translate(-134.877 -43.096)" fill="#a39d81"/>
    <path id="Path_1344" data-name="Path 1344" d="M224.608,121.958a.561.561,0,0,0,.784,0l2.687-2.623a.561.561,0,1,0-.784-.8L225,120.772l-1.1-1.073a.561.561,0,1,0-.784.8Z" transform="translate(-168.614 -85.887)" fill="#a39d81"/>
  </g>
</svg>
