<svg xmlns="http://www.w3.org/2000/svg" xmlns:xlink="http://www.w3.org/1999/xlink" width="220.86" height="220.86" viewBox="0 0 220.86 220.86">
  <defs>
    <clipPath id="clip-path">
      <circle id="Ellipse_1" data-name="Ellipse 1" cx="110.43" cy="110.43" r="110.43" fill="none"/>
    </clipPath>
    <clipPath id="clip-path-2">
      <rect id="Rectangle_10" data-name="Rectangle 10" width="450.757" height="318.528" transform="translate(0 0)" fill="none"/>
    </clipPath>
    <clipPath id="clip-path-3">
      <rect id="Rectangle_6" data-name="Rectangle 6" width="450.757" height="318.528" fill="none"/>
    </clipPath>
    <clipPath id="clip-path-4">
      <rect id="Rectangle_5" data-name="Rectangle 5" width="564.645" height="426.495" fill="none"/>
    </clipPath>
    <clipPath id="clip-path-5">
      <rect id="Rectangle_4" data-name="Rectangle 4" width="450.698" height="318.677" fill="none"/>
    </clipPath>
  </defs>
  <g id="Layer_2" data-name="Layer 2" transform="translate(-134.67 -81.3)">
    <g id="Layer_1" data-name="Layer 1" transform="translate(134.67 81.3)">
      <g id="Group_10" data-name="Group 10" transform="translate(0 0)" clip-path="url(#clip-path)">
        <g id="Group_9" data-name="Group 9" transform="translate(-72.121 -43.052)" clip-path="url(#clip-path-2)">
          <g id="Group_8" data-name="Group 8" transform="translate(0 0)">
            <rect id="Rectangle_3" data-name="Rectangle 3" width="450.698" height="318.528" transform="translate(0.027)" fill="#16302d"/>
            <g id="Group_6" data-name="Group 6" transform="translate(0 0)" clip-path="url(#clip-path-3)">
              <g id="Group_5" data-name="Group 5" transform="translate(0.46 -0.471)" opacity="0.1">
                <g id="Group_4" data-name="Group 4" clip-path="url(#clip-path-4)">
                  <g id="Group_3" data-name="Group 3" transform="translate(0 0.075)" clip-path="url(#clip-path-5)">
                    <path id="Path_1" data-name="Path 1" d="M629.214-81.173c4.727,0,9.77.369,14.106,2.024C659.2-73.084,667.844-58.357,666.41-41.06c-1.263,15.284-13.673,29-28.967,31.981-16.114,3.158-31.9-4-39.406-19.133-3.073-6.194-6.654-7.993-13.234-7.934q-64.514.391-129.017,0c-6.424-.032-10.075,1.349-13.25,7.773-8.3,16.81-26.585,23.673-43.834,17.805-17.522-5.958-27.511-22.409-24.652-40.579,2.81-17.821,17.559-30.027,36.6-30.054q54.4-.091,108.813,0c36.59,0,73.181-.08,109.772.075M411.582-63.276c-11.815,0-19.663,6.654-20.552,17.024-.76,8.806,6.2,17.3,16.237,19.808,8.507,2.141,19.39-4.775,20.98-15.043,1.606-10.407,6.237-13.116,16.547-12.993,49.423.584,98.856.262,148.289.257,14.647,0,14.856-.059,18.956,14.058,2.484,8.565,8.737,13.678,16.521,13.662,5.5,0,11.879-4,16.274-7.971,5.353-4.818,5.444-11.836,2.173-18.533-3.442-7.04-8.833-10.407-16.836-10.38-36.912.145-73.823.064-110.74.064q-53.919,0-107.85.043" transform="translate(-101.92 81.199)" fill="#70b3a7"/>
                    <path id="Path_2" data-name="Path 2" d="M522.118,171l-.348-.091v33.759l.5.059V390.553H656.039V267.923h-.31V138.012h.433c-.048-36.81-.123-73.615.23-110.419.091-9.1-2.912-11.36-11.5-11.274q-56.372.535-112.743,0c-8.217-.086-10.219,2.73-10.171,10.519.305,44.326.129,88.652.118,132.984V171.01m94.38,178.466q.129-65.52.134-131.035c0-13.566.027-13.56,13.731-14.62.535-.043,1.071-.535,2.141-1.071V180.7c-15.9-1.547-15.9-1.547-15.905-16.858v-41.43c0-17.987-.1-35.975,0-53.957.043-7.441,3.7-12.506,11.387-12.768,7.805-.268,11.515,4.609,11.9,12.136.128,2.564.069,5.139.069,7.709V197.9q0,76.12-.069,152.235c0,10.766-4.54,15.873-12.848,14.834-9.2-1.156-10.595-7.795-10.579-15.493M593.95,203.419V180.85c-2.243-.4-3.523-.915-4.732-.787-10.381,1.071-12.762-3.945-12.516-13.624.642-25.038.225-50.1.241-75.146,0-7.709-.2-15.423.1-23.121.289-7.372,4.283-12.345,11.778-12.452s11.4,4.877,12.2,12.2a45.055,45.055,0,0,1,.048,4.818V349.246a28.928,28.928,0,0,1-.075,4.818c-1.071,6.381-4.5,10.707-11.307,10.926-7.136.246-11.333-3.6-12.586-10.573a27.656,27.656,0,0,1-.177-4.818q0-68.888.032-137.781a55.732,55.732,0,0,1,.862-7.109l16.124-1.3m-49.6-27.3c-5.648.482-7.805-2.495-7.779-8.2.166-32.4-.037-64.776.15-97.2.053-8.913,5.734-15.22,12.805-15.113,9.224.139,11.312,6.959,12.661,14.176a31.8,31.8,0,0,1,.1,5.766q0,135.222-.07,270.438c0,3.458.241,7.768-1.606,10.171-2.789,3.651-7.3,8.217-11.108,8.244s-8.367-4.491-11.194-8.116c-1.842-2.361-1.606-6.676-1.606-10.123q-.134-66.382-.038-132.813c0-2.784.343-5.568.535-8.673l16.788-1.1c0-5.8-.4-11.2.091-16.515.7-7.495-1.349-11.676-9.77-10.948" transform="translate(-170.785 35.867)" fill="#70b3a7"/>
                  </g>
                </g>
              </g>
            </g>
            <path id="Path_3" data-name="Path 3" d="M59.394,280.507a4.719,4.719,0,0,1-3.7-1.317,4.818,4.818,0,0,1-1.167-3.319v-3.892h2.778v3.453q0,2.677,2.923,2.677h2.323V261.647h2.784v18.86Zm18.994-5.953a.16.16,0,0,1,.161.08.284.284,0,0,1,.037.118v2a.262.262,0,0,1-.037.128.166.166,0,0,1-.161.07H77.135a4.328,4.328,0,0,1-1.478,3.266,7.7,7.7,0,0,1-3.6,1.4l-1.1-2.468a8.457,8.457,0,0,0,1.959-.45,2.291,2.291,0,0,0,1.1-.862,2.768,2.768,0,0,0,.38-1.547v-6.911a6.693,6.693,0,0,0-1.274-.139q-2.42,0-2.42,2.741a2.676,2.676,0,0,0,.626,1.884,2.292,2.292,0,0,0,1.793.691H74l-1.071,2.4h-.278a4.989,4.989,0,0,1-2.473-.621,4.4,4.4,0,0,1-1.729-1.756,5.39,5.39,0,0,1-.626-2.639,5.134,5.134,0,0,1,.68-2.607,4.716,4.716,0,0,1,1.9-1.825,5.824,5.824,0,0,1,2.827-.669,27.894,27.894,0,0,1,3.956.4v7.313Zm5.107-1.858a5.471,5.471,0,0,1-.118,1.119,2.329,2.329,0,0,0,1.927.739.155.155,0,0,1,.155.069.279.279,0,0,1,.043.129v2a.278.278,0,0,1-.043.128.155.155,0,0,1-.155.07,3.783,3.783,0,0,1-1.435-.321,4.035,4.035,0,0,1-1.387-.958,3.554,3.554,0,0,1-2.864,1.28H78.387a.166.166,0,0,1-.161-.07.263.263,0,0,1-.037-.128v-2a.263.263,0,0,1,.037-.129.166.166,0,0,1,.161-.069h.4a1.772,1.772,0,0,0,1.365-.632,2.4,2.4,0,0,0,.535-1.665V261.647h2.784v11.076Zm6.777-5.862a5.8,5.8,0,0,1,3.287.931,5.231,5.231,0,0,1,2.018,2.527l1.071,2.757a2.088,2.088,0,0,0,.926,1.1,2.526,2.526,0,0,0,1.317.4.166.166,0,0,1,.161.07.262.262,0,0,1,.037.128v2a.263.263,0,0,1-.037.129.166.166,0,0,1-.161.07,5.18,5.18,0,0,1-4.053-1.44,11.431,11.431,0,0,1-2.9,1.071,13.882,13.882,0,0,1-3.116.369H85.293a.166.166,0,0,1-.161-.07.263.263,0,0,1-.037-.129v-2a.263.263,0,0,1,.037-.128.166.166,0,0,1,.161-.07h3.517a21.651,21.651,0,0,0,2.709-.15,10.217,10.217,0,0,0,2.393-.61L93,271.572a3.17,3.17,0,0,0-1.215-1.51,3.474,3.474,0,0,0-1.943-.535,5.116,5.116,0,0,0-2.286.5l-1.012-2.281A7.812,7.812,0,0,1,90.272,266.834Zm8.619,10.113a.161.161,0,0,1-.155-.07.278.278,0,0,1-.043-.129v-2a.278.278,0,0,1,.043-.128.161.161,0,0,1,.155-.07h1.991v-12.9h2.757v15.305Zm8.126,0v-15.3H109.8v15.305Zm18.539-.958a8.722,8.722,0,0,1-2.677.728,25.671,25.671,0,0,1-3.528.23h-2.623l-1.071-2.4h3.362a16.68,16.68,0,0,0,3.8-.337l-2.821-7.377h2.982l3.057,8.03Zm2.864.958v-15.3H131.2v15.305Zm10.669-10.113a27.751,27.751,0,0,1,3.951.4v8.93a6.011,6.011,0,0,1-.632,2.976,4.052,4.052,0,0,1-1.74,1.67,9.359,9.359,0,0,1-2.73.808l-1.114-2.473a8.34,8.34,0,0,0,1.954-.45,2.28,2.28,0,0,0,1.1-.862,2.768,2.768,0,0,0,.38-1.547v-6.911a6.693,6.693,0,0,0-1.274-.139c-1.606,0-2.42.915-2.42,2.741a2.677,2.677,0,0,0,.621,1.884,2.3,2.3,0,0,0,1.8.691h.878l-1.071,2.4h-.278a4.973,4.973,0,0,1-2.473-.621,4.4,4.4,0,0,1-1.729-1.756,5.391,5.391,0,0,1-.626-2.639,5.081,5.081,0,0,1,.68-2.607,4.716,4.716,0,0,1,1.9-1.825,5.808,5.808,0,0,1,2.832-.664Zm9.877,9.513a5.294,5.294,0,0,1-1.2,3.828,4.989,4.989,0,0,1-3.11,1.445l-1.114-2.473a6.342,6.342,0,0,0,1.531-.38,1.649,1.649,0,0,0,.835-.792,3.39,3.39,0,0,0,.278-1.526v-9.406h2.784v9.31Zm11.66-9.513a27.894,27.894,0,0,1,3.956.4v5.412a2.206,2.206,0,0,0,.385,1.472,1.483,1.483,0,0,0,1.146.428h.4a.166.166,0,0,1,.161.07.262.262,0,0,1,.037.128v2a.263.263,0,0,1-.037.129.166.166,0,0,1-.161.07h-1.231a3.239,3.239,0,0,1-2.586-1.038,4.181,4.181,0,0,1-.894-2.816v-3.721a6.522,6.522,0,0,0-1.247-.139q-2.425,0-2.425,2.741a2.677,2.677,0,0,0,.626,1.884,2.3,2.3,0,0,0,1.8.691h1.033l-1.071,2.4h-.4a5.032,5.032,0,0,1-2.484-.621,4.455,4.455,0,0,1-1.751-1.756,5.353,5.353,0,0,1-.632-2.639,5.129,5.129,0,0,1,.675-2.607,4.717,4.717,0,0,1,1.9-1.826,5.825,5.825,0,0,1,2.832-.664Zm-3.378-1.5v-2.516h2.864v2.516Zm3.978,0v-2.516h2.859v2.516Zm12.6,2.5a5.823,5.823,0,0,1,3.972,1.2,4.379,4.379,0,0,1,1.349,3.458,8.116,8.116,0,0,1-.375,2.318,15.518,15.518,0,0,1-.8,2.141H166.488a.166.166,0,0,1-.161-.07.263.263,0,0,1-.037-.128v-2a.263.263,0,0,1,.037-.129.166.166,0,0,1,.161-.069h9.5a5.921,5.921,0,0,0,.38-1.858,2.2,2.2,0,0,0-.776-1.89,3.8,3.8,0,0,0-2.264-.567h-4.909l-1.071-2.4,5.584-6.194H176.3l-6.119,6.194Zm13.052,6.713a.161.161,0,0,1,.161.08.284.284,0,0,1,.037.118v2a.262.262,0,0,1-.037.129.166.166,0,0,1-.161.07,3.918,3.918,0,0,1-2.008-.621h0a5.318,5.318,0,0,1-1.2,3.828,5,5,0,0,1-3.11,1.445l-1.114-2.452a6.422,6.422,0,0,0,1.531-.38,1.649,1.649,0,0,0,.835-.792,3.463,3.463,0,0,0,.278-1.526v-9.406h2.778V273.7a2.329,2.329,0,0,0,2.008.857Zm12.982,2.4a4,4,0,0,1-3.239-1.317,3.555,3.555,0,0,1-2.88,1.317h-6.863a.166.166,0,0,1-.161-.07.262.262,0,0,1-.037-.128v-2a.263.263,0,0,1,.037-.129.166.166,0,0,1,.161-.069h1.986v-7.495h2.784v7.495H192.9a1.751,1.751,0,0,0,1.36-.632,2.382,2.382,0,0,0,.567-1.665v-5.214h2.784v5.771a1.526,1.526,0,0,0,.894,1.3,3.887,3.887,0,0,0,1.847.439h1.231V266.2h2.784v10.75Zm-7.013-11.612v-2.516H195.7v2.516Zm2.1-3.335V259.73h2.586v2.286Zm1.868,3.335v-2.516h2.864v2.516Z" transform="translate(46.786 -77.634)" fill="#a39d81"/>
            <path id="Path_4" data-name="Path 4" d="M57.65,304.072a6.32,6.32,0,0,1,1.119.112l.658.112v3.672a1.028,1.028,0,0,0,.241.76,1,1,0,0,0,.744.241h.23a.1.1,0,0,1,.091.043.2.2,0,0,1,0,.07v.412a.23.23,0,0,1,0,.075.1.1,0,0,1-.091.038h-.252a1.515,1.515,0,0,1-1.237-.455,1.8,1.8,0,0,1-.385-1.2v-3.084a7.345,7.345,0,0,0-1.178-.171,2,2,0,0,0-1.13.316,2.04,2.04,0,0,0-.707.841,2.548,2.548,0,0,0-.236,1.071,2.184,2.184,0,0,0,.225.974,1.831,1.831,0,0,0,.675.755,1.926,1.926,0,0,0,1.071.289h.953l-.305.664h-.589a2.753,2.753,0,0,1-1.488-.385,2.43,2.43,0,0,1-.915-1.017,3.014,3.014,0,0,1-.305-1.344,2.955,2.955,0,0,1,.321-1.344,2.676,2.676,0,0,1,.958-1.044,2.8,2.8,0,0,1,1.531-.4ZM56.253,303v-.99H57V303Zm2.066,0v-.99h.744V303Zm5.6,4.379a2.253,2.253,0,0,1-.118.658,1.509,1.509,0,0,0,.76.669,2.862,2.862,0,0,0,1.3.262.1.1,0,0,1,.091.043.145.145,0,0,1,0,.07v.412a.161.161,0,0,1,0,.075c0,.027-.043.038-.091.038a3.508,3.508,0,0,1-1.392-.241,2.269,2.269,0,0,1-.921-.749,2.141,2.141,0,0,1-1.836.99H60.643c-.048,0-.075,0-.091-.038a.161.161,0,0,1-.027-.075v-.412a.145.145,0,0,1,.027-.07.1.1,0,0,1,.091-.043H61.66a1.521,1.521,0,0,0,1.156-.466,1.606,1.606,0,0,0,.444-1.151v-3.169h.658v3.18Zm-2.141,4.684v-.99h.749v.99Zm2.066,0v-.99h.717v.99Zm2-2.441a.1.1,0,0,1-.091-.037.231.231,0,0,1,0-.075V309.1a.2.2,0,0,1,0-.07.1.1,0,0,1,.091-.043h1.606V304.2h.658v5.423ZM67.388,303v-.99h.749V303Zm8.346,5.985a.1.1,0,0,1,.091.043.2.2,0,0,1,0,.07v.412a.23.23,0,0,1,0,.075.1.1,0,0,1-.091.037H74.321v.161q0,2.109-2.436,2.511l-.273-.6a3.212,3.212,0,0,0,1.515-.621,1.547,1.547,0,0,0,.535-1.253v-4.946a5.438,5.438,0,0,0-1.178-.161,2,2,0,0,0-1.13.316,2.038,2.038,0,0,0-.707.84,2.628,2.628,0,0,0-.236,1.071,2.184,2.184,0,0,0,.225.974,1.83,1.83,0,0,0,.675.755,1.929,1.929,0,0,0,1.071.289h.84l-.284.637h-.5a2.753,2.753,0,0,1-1.488-.386,2.43,2.43,0,0,1-.915-1.017,3.014,3.014,0,0,1-.305-1.344,2.955,2.955,0,0,1,.321-1.344,2.677,2.677,0,0,1,.958-1.044,2.8,2.8,0,0,1,1.531-.4,6.931,6.931,0,0,1,1.392.182l.385.08v4.636Zm0,.637c-.048,0-.08,0-.091-.037a.161.161,0,0,1,0-.075V309.1a.145.145,0,0,1,0-.07c0-.027.043-.043.091-.043H77.34V304.2H78v5.423ZM77.276,303v-.99h.744V303Zm3.3,4.984a1.028,1.028,0,0,0,.236.76,1.017,1.017,0,0,0,.749.241h.225a.1.1,0,0,1,.091.043.128.128,0,0,1,0,.07v.412a.145.145,0,0,1,0,.075c0,.027-.043.037-.091.037h-.246a1.515,1.515,0,0,1-1.237-.46,1.8,1.8,0,0,1-.385-1.2v-7.088h.658v7.093Zm5.005-3.9a9.313,9.313,0,0,1,1.9.262v2.473a3.212,3.212,0,0,1-.252,1.322,1.65,1.65,0,0,0,.594.6,1.729,1.729,0,0,0,.937.236.1.1,0,0,1,.091.043.128.128,0,0,1,0,.07v.412a.145.145,0,0,1,0,.075c0,.027-.043.037-.091.037a2.141,2.141,0,0,1-1.836-.932,2.479,2.479,0,0,1-2.141.932H81.762a.1.1,0,0,1-.091-.037.145.145,0,0,1,0-.075V309.1a.128.128,0,0,1,0-.07.1.1,0,0,1,.091-.043h2.072a2.108,2.108,0,0,1-.808-.883,2.73,2.73,0,0,1-.273-1.226,2.96,2.96,0,0,1,.327-1.344,2.678,2.678,0,0,1,.958-1.044,2.8,2.8,0,0,1,1.526-.4Zm-.054.637a2,2,0,0,0-1.13.316,2.039,2.039,0,0,0-.707.84,2.554,2.554,0,0,0-.241,1.071,2.2,2.2,0,0,0,.219.958,1.831,1.831,0,0,0,.637.75,1.928,1.928,0,0,0,1.028.311,1.852,1.852,0,0,0,1.1-.723,2.308,2.308,0,0,0,.38-1.376v-2a5.793,5.793,0,0,0-1.29-.171ZM84.118,303v-.99h.749V303Zm2.066,0v-.99h.744V303Zm2.57,6.622a.1.1,0,0,1-.091-.037.231.231,0,0,1,0-.075V309.1a.2.2,0,0,1,0-.07.1.1,0,0,1,.091-.043H90.36v-8.11h.659v8.732Zm4.524,0v-8.748h.658v8.732Zm8.175,0a3.212,3.212,0,0,1-1.279-.246,2.141,2.141,0,0,1-.91-.75,2.05,2.05,0,0,1-.343-1.178v-1.67h.658v1.654a1.408,1.408,0,0,0,.492,1.071,2.072,2.072,0,0,0,1.424.439h5.155v-4.786h.658v5.423Zm.166-5.653v-.99h.749v.99Zm2.066,0v-.99h.744v.99Zm5.664,5.653v-8.748h.658v8.732Zm3.48.15a2.618,2.618,0,0,1-.482,1.654,2.676,2.676,0,0,1-1.5.867l-.273-.6a1.826,1.826,0,0,0,1.2-.535,1.906,1.906,0,0,0,.4-1.306v-5.621h.658V309.8Zm2.586-1.788a1.07,1.07,0,0,0,.236.76,1.022,1.022,0,0,0,.749.241h.23a.1.1,0,0,1,.091.043.2.2,0,0,1,0,.07v.412a.23.23,0,0,1,0,.075.1.1,0,0,1-.091.037h-.252a1.515,1.515,0,0,1-1.237-.46,1.8,1.8,0,0,1-.385-1.2v-7.088h.664v7.093Zm10.755-.6a2.334,2.334,0,0,1-.1.685,1.536,1.536,0,0,0,.578.664,1.787,1.787,0,0,0,.985.257.1.1,0,0,1,.091.043.144.144,0,0,1,.027.07v.412a.161.161,0,0,1-.027.075c0,.027-.043.037-.091.037a2.141,2.141,0,0,1-1.847-.969,2.013,2.013,0,0,1-1.788.969,2.313,2.313,0,0,1-2.018-1.215,2.334,2.334,0,0,1-.787.878,2.11,2.11,0,0,1-1.183.337h-3.378c-.048,0-.08,0-.091-.037a.161.161,0,0,1-.027-.075V309.1a.145.145,0,0,1,.027-.07c0-.027.043-.043.091-.043h1.606V304.2h.658v4.786h1.1a1.52,1.52,0,0,0,1.156-.466,1.606,1.606,0,0,0,.444-1.151V304.2h.658v3.18a1.3,1.3,0,0,0,.252.749,2.013,2.013,0,0,0,.658.616,1.607,1.607,0,0,0,.824.241,1.43,1.43,0,0,0,1.124-.466,1.659,1.659,0,0,0,.412-1.151v-3.651h.658v3.662ZM120.558,303v-.99h.749V303Zm1.033-1.9v-.99h.749v.99Zm1.033,1.9v-.99h.744V303Zm8.282,4.379a2.239,2.239,0,0,1-.112.658,1.51,1.51,0,0,0,.733.685,2.85,2.85,0,0,0,1.3.262.1.1,0,0,1,.091.043.128.128,0,0,1,0,.07v.412a.145.145,0,0,1,0,.075c0,.027-.043.037-.091.037a3.5,3.5,0,0,1-1.392-.241,2.2,2.2,0,0,1-.921-.749,2.169,2.169,0,0,1-.771.723,2.088,2.088,0,0,1-1.071.268h-1.044a.1.1,0,0,1-.091-.037.232.232,0,0,1,0-.075V309.1a.205.205,0,0,1,0-.07.1.1,0,0,1,.091-.043h1.022a1.52,1.52,0,0,0,1.156-.466,1.606,1.606,0,0,0,.439-1.151V304.2h.658v3.18ZM129.118,303v-.99h.755V303Zm2.061,0v-.99h.749V303Zm9.352,6.622a2.972,2.972,0,0,1-1.349-.3,2.586,2.586,0,0,1-1.012-.915,2.292,2.292,0,0,1-.787.878,2.111,2.111,0,0,1-1.183.337h-3.378a.1.1,0,0,1-.091-.037.145.145,0,0,1,0-.075V309.1a.128.128,0,0,1,0-.07.1.1,0,0,1,.091-.043h1.606V304.2h.653v4.786h1.1a1.52,1.52,0,0,0,1.156-.466,1.606,1.606,0,0,0,.439-1.151V304.2h.658v3.212a1.37,1.37,0,0,0,.3.733,2.141,2.141,0,0,0,.717.589,1.932,1.932,0,0,0,.9.225h1.3v-5.268h.653v5.889Zm8.148-6.815a7.1,7.1,0,0,1-.385,2.452,4.432,4.432,0,0,1,1.408,3.271,5.272,5.272,0,0,1-.118,1.071h-5.739l-.284-.637a16.18,16.18,0,0,0,2.254-1.606,7.736,7.736,0,0,0,1.649-1.932,8.865,8.865,0,0,0-1.536-.932,9.219,9.219,0,0,0-1.676-.642v-.691a12.955,12.955,0,0,1,3.528,1.686,7.9,7.9,0,0,0,.225-2.077v-2.141h.658v2.141Zm-.712,3.046a9.1,9.1,0,0,1-3.4,3.132h4.438a1.307,1.307,0,0,0,.037-.316,4.562,4.562,0,0,0-.23-1.51A3.646,3.646,0,0,0,147.968,305.854Zm3.544,3.747v-8.726h.658v8.732Zm8.175-5.535a6.918,6.918,0,0,1,1.392.182l.385.08v5.434c0,1.408-.808,2.243-2.436,2.511l-.273-.6a3.211,3.211,0,0,0,1.536-.605,1.552,1.552,0,0,0,.535-1.253v-4.941a5.48,5.48,0,0,0-1.183-.161,1.97,1.97,0,0,0-1.124.316,2.012,2.012,0,0,0-.712.84,2.628,2.628,0,0,0-.236,1.071,2.184,2.184,0,0,0,.225.974,1.83,1.83,0,0,0,.675.755,1.943,1.943,0,0,0,1.071.289h.84l-.284.637h-.5a2.719,2.719,0,0,1-1.483-.386,2.409,2.409,0,0,1-.921-1.017,3.014,3.014,0,0,1-.305-1.344,2.955,2.955,0,0,1,.321-1.344,2.677,2.677,0,0,1,.958-1.044,2.8,2.8,0,0,1,1.531-.4Zm9.069,0a6.7,6.7,0,0,1,1.349.171l.428.091V309.6h-.658v-4.732a5.222,5.222,0,0,0-1.178-.171,2,2,0,0,0-1.13.316,2.04,2.04,0,0,0-.707.84,2.548,2.548,0,0,0-.236,1.071,2.184,2.184,0,0,0,.225.974,1.831,1.831,0,0,0,.675.755,1.926,1.926,0,0,0,1.071.289h.84l-.284.637h-.5a2.752,2.752,0,0,1-1.488-.385,2.431,2.431,0,0,1-.915-1.017,3.014,3.014,0,0,1-.305-1.344,2.955,2.955,0,0,1,.321-1.344,2.675,2.675,0,0,1,.958-1.044,2.8,2.8,0,0,1,1.531-.4Zm-1.4-1.071v-.99h.749V303Zm2.066,0v-.99h.744V303Zm3.694,4.984a1.071,1.071,0,0,0,.236.76,1.024,1.024,0,0,0,.749.241h.2a.1.1,0,0,1,.091.043.145.145,0,0,1,.027.07v.412a.161.161,0,0,1-.027.075c0,.027-.043.037-.091.037h-.246a1.515,1.515,0,0,1-1.237-.46,1.8,1.8,0,0,1-.385-1.2v-7.083h.658v7.093Zm4.069-3.9a3.084,3.084,0,0,1,1.606.391,2.381,2.381,0,0,1,.942,1.028,3.1,3.1,0,0,1,.305,1.37,5.21,5.21,0,0,1-.214,1.408,6.667,6.667,0,0,1-.5,1.338h-5.016a.1.1,0,0,1-.091-.037.233.233,0,0,1,0-.075v-.412a.2.2,0,0,1,0-.07.1.1,0,0,1,.091-.043h1.071v-4.647a9.036,9.036,0,0,1,1.815-.235Zm-.032.637a5.393,5.393,0,0,0-1.124.123v4.138h2.9a5.054,5.054,0,0,0,.444-2.083,2.371,2.371,0,0,0-.535-1.531,2.05,2.05,0,0,0-1.7-.648Zm5.428,3.26a1.071,1.071,0,0,0,.236.76,1.017,1.017,0,0,0,.749.241h.225a.1.1,0,0,1,.091.043.129.129,0,0,1,0,.07v.412a.144.144,0,0,1,0,.075c0,.027-.043.037-.091.037h-.246a1.515,1.515,0,0,1-1.237-.46,1.8,1.8,0,0,1-.385-1.2v-7.083h.658v7.093Zm3.929-3.9a2.366,2.366,0,0,1,1.74.664,5.092,5.092,0,0,1,1.119,1.8l.621,1.579a1.269,1.269,0,0,0,.535.653,1.82,1.82,0,0,0,.921.2.1.1,0,0,1,.091.043.129.129,0,0,1,0,.07v.412a.145.145,0,0,1,0,.075c0,.027-.043.037-.091.037a2.067,2.067,0,0,1-1.767-.8,6.392,6.392,0,0,1-1.649.594,7.882,7.882,0,0,1-1.761.2h-2.463a.1.1,0,0,1-.091-.037.23.23,0,0,1,0-.075v-.412a.2.2,0,0,1,0-.07.1.1,0,0,1,.091-.043h2.463a8.567,8.567,0,0,0,3.158-.605l-.054-.123-.7-1.7a3.244,3.244,0,0,0-.937-1.387,2.309,2.309,0,0,0-1.445-.428,2.871,2.871,0,0,0-1.392.4l-.273-.573a6.817,6.817,0,0,1,.958-.38,3.28,3.28,0,0,1,.942-.107Zm7.779,0a3.025,3.025,0,0,1,1.606.391,2.617,2.617,0,0,1,1,1.028,2.874,2.874,0,0,1,.332,1.349,2.939,2.939,0,0,1-.273,1.274,1.467,1.467,0,0,0,.578.621,1.762,1.762,0,0,0,.953.236.1.1,0,0,1,.091.043.129.129,0,0,1,0,.07v.412a.145.145,0,0,1,0,.075.1.1,0,0,1-.091.037,2.179,2.179,0,0,1-1.858-.969,2.36,2.36,0,0,1-.889.712,2.784,2.784,0,0,1-1.21.257h-3.089a.1.1,0,0,1-.091-.037.229.229,0,0,1,0-.075v-.412a.2.2,0,0,1,0-.07.1.1,0,0,1,.091-.043h1.071v-4.647a9.037,9.037,0,0,1,1.815-.235Zm-.038.637a5.349,5.349,0,0,0-1.119.123v4.138h1.312a2.072,2.072,0,0,0,1.536-.535,2.109,2.109,0,0,0,.535-1.558,2.306,2.306,0,0,0-.252-1.071,1.953,1.953,0,0,0-.766-.8,2.414,2.414,0,0,0-1.253-.305Zm6.692,2.677a1.97,1.97,0,0,1-.118.674,1.494,1.494,0,0,0,.589.675,1.794,1.794,0,0,0,.99.257.1.1,0,0,1,.091.043.128.128,0,0,1,0,.07v.412a.145.145,0,0,1,0,.075.1.1,0,0,1-.091.038,2.141,2.141,0,0,1-1.868-1.023,2.184,2.184,0,0,1-.771.712,2.142,2.142,0,0,1-1.071.268h-.252a.1.1,0,0,1-.091-.037.145.145,0,0,1,0-.075v-.412a.129.129,0,0,1,0-.069.1.1,0,0,1,.091-.043h.225a1.52,1.52,0,0,0,1.156-.466,1.606,1.606,0,0,0,.444-1.151v-6.478h.658v6.488Zm1.461,2.243c-.048,0-.075,0-.091-.038a.145.145,0,0,1,0-.075v-.412a.129.129,0,0,1,0-.07.1.1,0,0,1,.091-.043h1.606v-8.127h.658v8.732Z" transform="translate(46.639 -96.397)" fill="#a39d81"/>
            <text id="SOLUTIONS_PIONEERS_LAW_FIRM" data-name="SOLUTIONS PIONEERS LAW FIRM" transform="translate(124.815 217.251)" fill="#a39d81" font-size="1" font-family="Lato"><tspan x="0" y="0">SOLUTIONS PIONEERS LAW FIRM</tspan></text>
            <rect id="Rectangle_7" data-name="Rectangle 7" width="20.605" height="0.369" transform="translate(100.74 220.491)" fill="#a39d81"/>
            <rect id="Rectangle_8" data-name="Rectangle 8" width="20.605" height="0.369" transform="translate(231.829 220.491)" fill="#a39d81"/>
            <g id="Group_7" data-name="Group 7" transform="translate(0 0)" clip-path="url(#clip-path-3)">
              <path id="Path_5" data-name="Path 5" d="M171.517,147.116v28.293H151.259v-28.33H149.2c.348,1.772.771,3.517,1.017,5.289.733,5.327-1.3,9.732-4.738,13.587-4.074,4.561-9.5,6.628-15.236,8-8.271,1.975-16.676,1.911-25.059,1.172-7.206-.637-14.3-2.056-20.841-5.353-3.367-1.7-6.542-3.8-9.8-5.734a6.952,6.952,0,0,1-.776-.664l2.4-2.082c.91.61,1.831,1.2,2.73,1.842a46.211,46.211,0,0,0,18,7.538,89.937,89.937,0,0,0,17.179,1.734c2.04,0,4.074-.193,6.114-.284,1.194-.054,1.772-.471,1.761-1.858-.07-6.89-.037-13.79-.027-20.686,0-.664.086-1.333.145-2.254a34.634,34.634,0,0,1,3.6,1.071c2.88,1.14,5.723,2.366,8.565,3.56a1.814,1.814,0,0,1,1.14,1.965c-.054,4.438,0,8.881,0,13.383,4.781-2.1,8.121-8.678,5.98-12.762-1.354-2.591-3.688-4.106-6.183-5.353a67.9,67.9,0,0,0-15.723-5.091c-8.4-1.874-16.853-3.549-25.2-5.632a38.572,38.572,0,0,1-14.588-7.04c-8.2-6.4-7.157-17.666-1.333-23.662,4.454-4.583,10.032-7.029,16.06-8.266a92.542,92.542,0,0,1,14.668-1.767c3.838-.155,7.714.535,11.569.883,1.012.086,2.024.262,3.03.268,14.636,0,29.278-.048,43.9.037,5.568.032,11.146.407,16.472,2.275,5.776,2.024,10.985,4.968,14.711,10.016,6.9,9.347,4.877,21.665-4.636,28.684a34.8,34.8,0,0,1-16.724,6.611c-1.874.23-3.747.428-5.889.664M145.451,108.4a16.452,16.452,0,0,0-1.467.969c-1.119,1.028-2.061.771-3.314,0a53,53,0,0,0-7.725-4.01,71.7,71.7,0,0,0-20.487-4.449,40.986,40.986,0,0,0-19.122,2.366c-3.871,1.526-7.366,3.64-9.385,7.495-2.291,4.336-1.863,9.775,3.5,12.265a28.773,28.773,0,0,0,4.85,1.927c7.629,1.981,15.284,3.86,22.934,5.755,2.141.535,4.283,1,6.729,1.563v-27.3a4.155,4.155,0,0,1,.964,0c3.828,1.354,7.645,2.741,11.472,4.085.974.337.958,1.071.953,1.879q0,11.885-.037,23.769a2.315,2.315,0,0,0,1.606,2.607,27.254,27.254,0,0,1,8.855,5.514,1.541,1.541,0,0,0,.851.476c1.488.048,2.976,0,4.609,0v-1.917c0-7.093.038-14.187-.032-21.274,0-1.387.439-1.729,1.74-1.718q8.539.091,17.072,0c1.242,0,1.547.412,1.536,1.606-.043,6.751,0,13.5,0,20.247v1.7a26.891,26.891,0,0,0,9.144-4.2c9.968-6.959,10.787-19.54,1.788-27.693-5.776-5.241-12.784-7.211-20.343-7.34-8.362-.15-16.729-.032-25.091,0-.348,0-.7.048-.878.059l9.294,5.632m21.248,38.545c0-.883.064-1.7,0-2.516-.107-1.135.2-1.777,1.478-1.665.857.075,1.183-.38,1.178-1.247-.027-4.936,0-9.866,0-14.8a2.081,2.081,0,0,0-1.938-2.3c-1.4,0-1.713,1.071-1.922,2.141a5.356,5.356,0,0,0,0,.878q0,20.578,0,41.173a2.758,2.758,0,0,0,.241,1.547c.423.535,1.1,1.253,1.681,1.258s1.269-.685,1.692-1.237a2.7,2.7,0,0,0,.241-1.542v-20.22c0-.423-.048-.846-.08-1.322l-2.543-.166m-6.044-3.464a3.172,3.172,0,0,1,.717-.118c1.569.166,1.933-.6,1.9-2.072-.1-3.812-.037-7.629-.037-11.446,0-1.172.032-2.345,0-3.517a1.713,1.713,0,0,0-1.783-1.9c-1.135-.016-1.729.739-1.847,1.858a6.607,6.607,0,0,0,0,.728v42.1a4.132,4.132,0,0,0,0,.728,1.811,1.811,0,0,0,3.614.059,4.12,4.12,0,0,0,0-.728V148.2a8.652,8.652,0,0,0-.128-1.071l-2.441-.2Zm-5.83,0c2.4-.236,2.409-.236,2.409-2.564V126.355a1.694,1.694,0,0,0-1.724-1.943c-1.188-.037-1.74.7-1.8,1.847v42.982c0,1.638.685,2.414,1.943,2.259,1.392-.177,1.606-1.188,1.606-2.361V149.193c0-2.066,0-2.066-2.082-2.227-.086,0-.166-.08-.327-.166Z" transform="translate(37.86 -2.349)" fill="#a39d81"/>
              <path id="Path_6" data-name="Path 6" d="M218.348,121.536H234.82a5.391,5.391,0,0,1,5.541,4.577,5.487,5.487,0,0,1-3.747,6.178,5.316,5.316,0,0,1-6.638-2.709,1.846,1.846,0,0,0-2-1.183q-9.77.048-19.535,0a1.89,1.89,0,0,0-2.008,1.21,5.353,5.353,0,0,1-5.964,2.912,5.578,5.578,0,0,1-4.384-4.866,5.476,5.476,0,0,1,3.5-5.8,6.049,6.049,0,0,1,2.141-.305h16.622m0,2.73H201.575a2.586,2.586,0,0,0-2.548,1.579,2.277,2.277,0,0,0,.332,2.821,4.208,4.208,0,0,0,2.463,1.215,2.607,2.607,0,0,0,2.5-2.082c.621-2.141.653-2.141,2.869-2.141,7.495,0,14.99.054,22.452-.037,1.563,0,2.259.4,2.505,1.981a2.764,2.764,0,0,0,3.175,2.286,3.043,3.043,0,0,0,2.463-3.014,2.811,2.811,0,0,0-3.116-2.591H218.342" transform="translate(-18.971 -13.419)" fill="#a39d81"/>
            </g>
          </g>
        </g>
      </g>
    </g>
  </g>
</svg>
