<svg xmlns="http://www.w3.org/2000/svg" xmlns:xlink="http://www.w3.org/1999/xlink" width="182.534" height="182.534" viewBox="0 0 182.534 182.534">
  <defs>
    <clipPath id="clip-path">
      <circle id="Ellipse_1781" data-name="Ellipse 1781" cx="91.267" cy="91.267" r="91.267" fill="none"/>
    </clipPath>
    <clipPath id="clip-path-2">
      <rect id="Rectangle_19373" data-name="Rectangle 19373" width="372.536" height="263.253" transform="translate(0 0)" fill="none"/>
    </clipPath>
    <clipPath id="clip-path-3">
      <rect id="Rectangle_19369" data-name="Rectangle 19369" width="372.536" height="263.253" fill="none"/>
    </clipPath>
    <clipPath id="clip-path-4">
      <rect id="Rectangle_19368" data-name="Rectangle 19368" width="466.66" height="352.484" fill="none"/>
    </clipPath>
    <clipPath id="clip-path-5">
      <rect id="Rectangle_19367" data-name="Rectangle 19367" width="372.487" height="263.376" fill="none"/>
    </clipPath>
  </defs>
  <g id="Group_76346" data-name="Group 76346" clip-path="url(#clip-path)">
    <g id="Group_76345" data-name="Group 76345" transform="translate(-59.606 -35.581)" clip-path="url(#clip-path-2)">
      <g id="Group_76344" data-name="Group 76344" transform="translate(0 0)">
        <rect id="Rectangle_19366" data-name="Rectangle 19366" width="372.487" height="263.253" transform="translate(0.022)" fill="#16302d"/>
        <g id="Group_76342" data-name="Group 76342" transform="translate(0 0)" clip-path="url(#clip-path-3)">
          <g id="Group_76341" data-name="Group 76341" transform="translate(0.38 -0.389)" opacity="0.1">
            <g id="Group_76340" data-name="Group 76340" clip-path="url(#clip-path-4)">
              <g id="Group_76339" data-name="Group 76339" transform="translate(0 0.062)" clip-path="url(#clip-path-5)">
                <path id="Path_2522" data-name="Path 2522" d="M584.85-81.185a33.307,33.307,0,0,1,11.658,1.672c13.123,5.013,20.268,17.184,19.083,31.48-1.044,12.632-11.3,23.971-23.94,26.431-13.317,2.61-26.361-3.305-32.568-15.813-2.54-5.119-5.5-6.606-10.937-6.557q-53.319.323-106.628,0c-5.309-.027-8.327,1.115-10.95,6.424C423.709-23.655,408.6-17.983,394.34-22.832c-14.481-4.924-22.737-18.521-20.374-33.537,2.323-14.729,14.512-24.817,30.245-24.839q44.961-.075,89.931,0c30.241,0,60.482-.066,90.723.062M404.985-66.394c-9.765,0-16.251,5.5-16.985,14.07-.628,7.278,5.128,14.3,13.419,16.37,7.03,1.77,16.025-3.947,17.339-12.433,1.327-8.6,5.154-10.84,13.676-10.738,40.846.482,81.7.217,122.556.212,12.105,0,12.278-.049,15.667,11.619,2.053,7.079,7.221,11.3,13.654,11.291,4.548,0,9.818-3.305,13.45-6.588,4.424-3.982,4.5-9.782,1.8-15.317-2.845-5.818-7.3-8.6-13.915-8.579-30.506.119-61.013.053-91.523.053q-44.563,0-89.134.035" transform="translate(-149.059 81.207)" fill="#70b3a7"/>
                <path id="Path_2523" data-name="Path 2523" d="M522.057,144.157l-.288-.075v27.9l.416.049v153.58H632.739V224.261h-.257V116.893h.358c-.04-30.422-.1-60.84.19-91.258.075-7.522-2.407-9.389-9.5-9.318q-46.589.442-93.178,0c-6.791-.071-8.446,2.256-8.406,8.694.252,36.634.106,73.268.1,109.907v9.247m78,147.5q.106-54.15.111-108.3c0-11.211.022-11.207,11.349-12.083.442-.035.885-.442,1.77-.885v-18.22c-13.141-1.279-13.141-1.279-13.145-13.932V104.005c0-14.866-.079-29.732,0-44.594.035-6.15,3.062-10.335,9.411-10.552,6.451-.221,9.517,3.809,9.831,10.03.106,2.119.057,4.247.057,6.371V166.389q0,62.911-.057,125.817c0,8.9-3.752,13.118-10.619,12.26-7.606-.956-8.756-6.442-8.743-12.8M581.424,170.951V152.3c-1.854-.327-2.911-.757-3.911-.65-8.579.885-10.548-3.261-10.344-11.26.531-20.693.186-41.4.2-62.106,0-6.371-.168-12.747.084-19.109.239-6.092,3.54-10.2,9.734-10.291s9.424,4.031,10.079,10.079a37.258,37.258,0,0,1,.04,3.982v228.53a23.905,23.905,0,0,1-.062,3.982c-.885,5.274-3.717,8.849-9.345,9.03-5.9.2-9.366-2.978-10.4-8.738a22.859,22.859,0,0,1-.146-3.982q0-56.933.027-113.871a46.06,46.06,0,0,1,.712-5.876l13.326-1.071m-41-22.564c-4.668.4-6.451-2.062-6.429-6.778.137-26.777-.031-53.535.124-80.334.044-7.367,4.739-12.579,10.583-12.49,7.623.115,9.349,5.752,10.464,11.716a26.28,26.28,0,0,1,.084,4.765q0,111.756-.058,223.508c0,2.858.2,6.42-1.327,8.406-2.305,3.017-6.035,6.792-9.181,6.814s-6.915-3.712-9.251-6.707c-1.522-1.951-1.327-5.517-1.327-8.367q-.111-54.863-.031-109.765c0-2.3.283-4.6.443-7.168l13.875-.907c0-4.8-.332-9.256.075-13.649.575-6.194-1.115-9.65-8.075-9.048" transform="translate(-231.692 26.812)" fill="#70b3a7"/>
              </g>
            </g>
          </g>
        </g>
        <path id="Path_2524" data-name="Path 2524" d="M58.549,276.9a3.9,3.9,0,0,1-3.057-1.088,3.982,3.982,0,0,1-.965-2.743v-3.217h2.3v2.854q0,2.212,2.416,2.212h1.92V261.314h2.3V276.9Zm15.7-4.92a.133.133,0,0,1,.133.066.234.234,0,0,1,.031.1V273.8a.217.217,0,0,1-.031.106.137.137,0,0,1-.133.058H73.211a3.577,3.577,0,0,1-1.221,2.7,6.363,6.363,0,0,1-2.978,1.155l-.907-2.04a6.99,6.99,0,0,0,1.619-.372,1.893,1.893,0,0,0,.907-.712,2.288,2.288,0,0,0,.314-1.279V267.7a5.533,5.533,0,0,0-1.053-.115q-2,0-2,2.265a2.212,2.212,0,0,0,.518,1.557,1.894,1.894,0,0,0,1.482.571h.726l-.885,1.982H69.5a4.123,4.123,0,0,1-2.044-.513A3.637,3.637,0,0,1,66.03,272a4.455,4.455,0,0,1-.518-2.181,4.243,4.243,0,0,1,.562-2.155,3.9,3.9,0,0,1,1.566-1.509,4.814,4.814,0,0,1,2.336-.553,23.052,23.052,0,0,1,3.27.332v6.044Zm4.221-1.535a4.521,4.521,0,0,1-.1.925,1.925,1.925,0,0,0,1.593.611.128.128,0,0,1,.128.057.23.23,0,0,1,.035.106V273.8a.23.23,0,0,1-.035.106.128.128,0,0,1-.128.058,3.127,3.127,0,0,1-1.186-.266,3.336,3.336,0,0,1-1.146-.792,2.938,2.938,0,0,1-2.367,1.057H74.246a.137.137,0,0,1-.133-.058.217.217,0,0,1-.031-.106v-1.655a.217.217,0,0,1,.031-.106.137.137,0,0,1,.133-.057h.327a1.465,1.465,0,0,0,1.128-.522,1.987,1.987,0,0,0,.442-1.376v-8.769h2.3v9.154Zm5.6-4.845a4.8,4.8,0,0,1,2.717.77,4.323,4.323,0,0,1,1.668,2.088l.885,2.279a1.725,1.725,0,0,0,.765.907,2.088,2.088,0,0,0,1.088.332.137.137,0,0,1,.133.058.217.217,0,0,1,.031.106V273.8a.217.217,0,0,1-.031.106.137.137,0,0,1-.133.057,4.281,4.281,0,0,1-3.349-1.19,9.448,9.448,0,0,1-2.4.885,11.473,11.473,0,0,1-2.575.305H79.954a.137.137,0,0,1-.133-.057.217.217,0,0,1-.031-.106V272.14a.217.217,0,0,1,.031-.106.137.137,0,0,1,.133-.058h2.907a17.894,17.894,0,0,0,2.239-.124,8.445,8.445,0,0,0,1.978-.5l-.752-1.832a2.62,2.62,0,0,0-1-1.248,2.872,2.872,0,0,0-1.606-.442,4.228,4.228,0,0,0-1.889.416l-.836-1.885A6.456,6.456,0,0,1,84.069,265.6Zm7.123,8.358a.133.133,0,0,1-.128-.058.23.23,0,0,1-.035-.106V272.14a.23.23,0,0,1,.035-.106.133.133,0,0,1,.128-.058h1.646V261.314h2.279v12.649Zm6.716,0V261.314h2.3v12.649Zm15.322-.792a7.209,7.209,0,0,1-2.212.6,21.217,21.217,0,0,1-2.916.19h-2.168l-.885-1.982h2.779a13.786,13.786,0,0,0,3.137-.279l-2.332-6.1H111.1l2.526,6.637Zm2.367.792V261.314h2.3v12.649Zm8.818-8.358a22.936,22.936,0,0,1,3.265.332v7.38a4.968,4.968,0,0,1-.522,2.46,3.349,3.349,0,0,1-1.438,1.38,7.735,7.735,0,0,1-2.256.668l-.92-2.044a6.891,6.891,0,0,0,1.615-.372,1.884,1.884,0,0,0,.911-.712,2.288,2.288,0,0,0,.314-1.279V267.7a5.533,5.533,0,0,0-1.053-.115c-1.327,0-2,.757-2,2.265a2.212,2.212,0,0,0,.513,1.557,1.9,1.9,0,0,0,1.487.571h.726l-.885,1.982h-.23a4.11,4.11,0,0,1-2.044-.513A3.637,3.637,0,0,1,120.468,272a4.455,4.455,0,0,1-.518-2.181,4.2,4.2,0,0,1,.562-2.155,3.9,3.9,0,0,1,1.566-1.509,4.8,4.8,0,0,1,2.34-.549Zm8.163,7.862a4.375,4.375,0,0,1-1,3.163,4.124,4.124,0,0,1-2.571,1.195l-.92-2.044a5.239,5.239,0,0,0,1.265-.314,1.363,1.363,0,0,0,.69-.655,2.8,2.8,0,0,0,.23-1.261v-7.774h2.3v7.694Zm9.636-7.862a23.052,23.052,0,0,1,3.27.332v4.473a1.823,1.823,0,0,0,.319,1.217,1.226,1.226,0,0,0,.947.354h.327a.137.137,0,0,1,.133.058.217.217,0,0,1,.031.106V273.8a.217.217,0,0,1-.031.106.137.137,0,0,1-.133.057h-1.018a2.677,2.677,0,0,1-2.137-.858,3.456,3.456,0,0,1-.739-2.327V267.7a5.39,5.39,0,0,0-1.031-.115q-2,0-2,2.265a2.212,2.212,0,0,0,.518,1.557,1.9,1.9,0,0,0,1.487.571h.854l-.885,1.982h-.327a4.158,4.158,0,0,1-2.053-.513,3.682,3.682,0,0,1-1.447-1.451,4.424,4.424,0,0,1-.522-2.181,4.239,4.239,0,0,1,.557-2.155,3.9,3.9,0,0,1,1.566-1.509,4.814,4.814,0,0,1,2.34-.549Zm-2.792-1.239v-2.08h2.367v2.08Zm3.287,0v-2.08h2.363v2.08Zm10.411,2.066a4.813,4.813,0,0,1,3.283.991,3.619,3.619,0,0,1,1.115,2.858,6.707,6.707,0,0,1-.31,1.916,12.827,12.827,0,0,1-.659,1.77h-9.49a.137.137,0,0,1-.133-.058.217.217,0,0,1-.031-.106v-1.655a.218.218,0,0,1,.031-.106.137.137,0,0,1,.133-.057h7.849a4.893,4.893,0,0,0,.314-1.535,1.819,1.819,0,0,0-.642-1.562,3.142,3.142,0,0,0-1.872-.469h-4.057l-.885-1.982,4.615-5.119h2.787l-5.057,5.119Zm10.787,5.548a.133.133,0,0,1,.133.066.235.235,0,0,1,.031.1V273.8a.216.216,0,0,1-.031.106.137.137,0,0,1-.133.057,3.238,3.238,0,0,1-1.659-.513h0a4.395,4.395,0,0,1-.991,3.163,4.133,4.133,0,0,1-2.571,1.195l-.92-2.026a5.306,5.306,0,0,0,1.265-.314,1.363,1.363,0,0,0,.69-.655,2.862,2.862,0,0,0,.23-1.261v-7.774h2.3v5.5a1.925,1.925,0,0,0,1.659.708Zm10.729,1.987a3.309,3.309,0,0,1-2.677-1.088,2.938,2.938,0,0,1-2.38,1.088h-5.672a.137.137,0,0,1-.133-.058.216.216,0,0,1-.031-.106v-1.655a.217.217,0,0,1,.031-.106.137.137,0,0,1,.133-.057h1.641v-6.194h2.3v6.194h1.035a1.447,1.447,0,0,0,1.124-.522,1.969,1.969,0,0,0,.469-1.376v-4.309h2.3v4.77a1.261,1.261,0,0,0,.739,1.075,3.212,3.212,0,0,0,1.526.363h1.018v-6.9h2.3v8.884Zm-5.8-9.6v-2.079H171.2v2.079Zm1.739-2.756v-1.88h2.137v1.889Zm1.544,2.756v-2.079h2.367v2.079Z" transform="translate(29.205 -109.234)" fill="#a39d81"/>
        <path id="Path_2525" data-name="Path 2525" d="M57.163,303.384a5.222,5.222,0,0,1,.925.093l.544.093v3.035a.85.85,0,0,0,.2.628.827.827,0,0,0,.615.2h.19a.084.084,0,0,1,.075.035.168.168,0,0,1,0,.058v.341a.19.19,0,0,1,0,.062.08.08,0,0,1-.075.031h-.208a1.252,1.252,0,0,1-1.022-.376,1.491,1.491,0,0,1-.319-.991v-2.548a6.069,6.069,0,0,0-.973-.142,1.651,1.651,0,0,0-.934.261,1.686,1.686,0,0,0-.584.695,2.106,2.106,0,0,0-.195.885,1.8,1.8,0,0,0,.186.805,1.513,1.513,0,0,0,.557.624,1.592,1.592,0,0,0,.885.239h.788l-.252.549h-.487a2.275,2.275,0,0,1-1.23-.319,2.009,2.009,0,0,1-.757-.841,2.491,2.491,0,0,1-.252-1.111,2.442,2.442,0,0,1,.265-1.11,2.212,2.212,0,0,1,.792-.863,2.313,2.313,0,0,1,1.265-.332Zm-1.155-.885v-.819h.619v.819Zm1.708,0v-.819h.615v.819Zm4.628,3.619a1.862,1.862,0,0,1-.1.544,1.247,1.247,0,0,0,.628.553,2.365,2.365,0,0,0,1.071.217.08.08,0,0,1,.075.035.12.12,0,0,1,0,.058v.341a.133.133,0,0,1,0,.062c0,.022-.035.031-.075.031a2.9,2.9,0,0,1-1.15-.2,1.875,1.875,0,0,1-.761-.619,1.77,1.77,0,0,1-1.518.819h-.88c-.04,0-.062,0-.075-.031a.133.133,0,0,1-.022-.062v-.341a.12.12,0,0,1,.022-.058.08.08,0,0,1,.075-.035h.841a1.257,1.257,0,0,0,.956-.385,1.327,1.327,0,0,0,.367-.951v-2.619h.544v2.628Zm-1.77,3.871v-.819h.619v.819Zm1.708,0v-.819h.593v.819Zm1.655-2.018a.08.08,0,0,1-.075-.031.191.191,0,0,1,0-.062v-.341a.168.168,0,0,1,0-.058.084.084,0,0,1,.075-.035h1.327V303.49h.544v4.482Zm1.274-5.473v-.819h.619v.819Zm6.9,4.946a.084.084,0,0,1,.075.035.167.167,0,0,1,0,.057v.341a.19.19,0,0,1,0,.062.08.08,0,0,1-.075.031H70.94v.133q0,1.743-2.013,2.075l-.226-.5a2.655,2.655,0,0,0,1.252-.513,1.279,1.279,0,0,0,.442-1.035v-4.088a4.494,4.494,0,0,0-.973-.133,1.65,1.65,0,0,0-.934.261,1.684,1.684,0,0,0-.584.695,2.172,2.172,0,0,0-.195.885,1.805,1.805,0,0,0,.186.805,1.512,1.512,0,0,0,.557.624,1.594,1.594,0,0,0,.885.239h.695l-.234.527h-.411a2.275,2.275,0,0,1-1.23-.319,2.008,2.008,0,0,1-.757-.841,2.491,2.491,0,0,1-.252-1.111,2.442,2.442,0,0,1,.265-1.111,2.213,2.213,0,0,1,.792-.863,2.314,2.314,0,0,1,1.265-.332,5.726,5.726,0,0,1,1.15.15l.319.066v3.832Zm0,.527c-.04,0-.066,0-.075-.031a.133.133,0,0,1,0-.062v-.341a.119.119,0,0,1,0-.057c0-.022.035-.035.075-.035h1.327V303.49h.544v4.482Zm1.274-5.473v-.819H74v.819Zm2.725,4.119a.85.85,0,0,0,.195.628.841.841,0,0,0,.619.2h.186a.08.08,0,0,1,.075.035.106.106,0,0,1,0,.057v.341a.12.12,0,0,1,0,.062c0,.022-.035.031-.075.031h-.2a1.252,1.252,0,0,1-1.022-.38,1.491,1.491,0,0,1-.319-.991v-5.858h.544v5.862Zm4.137-3.221a7.7,7.7,0,0,1,1.566.217v2.044a2.655,2.655,0,0,1-.208,1.093,1.363,1.363,0,0,0,.491.5,1.429,1.429,0,0,0,.774.195.08.08,0,0,1,.075.035.106.106,0,0,1,0,.057v.341a.12.12,0,0,1,0,.062c0,.022-.035.031-.075.031a1.77,1.77,0,0,1-1.518-.77,2.048,2.048,0,0,1-1.77.77H77.09a.08.08,0,0,1-.075-.031.12.12,0,0,1,0-.062v-.341a.106.106,0,0,1,0-.057.084.084,0,0,1,.075-.035H78.8a1.742,1.742,0,0,1-.668-.73,2.256,2.256,0,0,1-.226-1.013,2.446,2.446,0,0,1,.27-1.111,2.213,2.213,0,0,1,.792-.863,2.31,2.31,0,0,1,1.261-.332Zm-.044.527a1.651,1.651,0,0,0-.934.261,1.686,1.686,0,0,0-.584.695,2.111,2.111,0,0,0-.2.885,1.822,1.822,0,0,0,.181.792,1.513,1.513,0,0,0,.526.619,1.594,1.594,0,0,0,.85.257,1.531,1.531,0,0,0,.911-.6,1.907,1.907,0,0,0,.314-1.137v-1.655A4.787,4.787,0,0,0,80.2,303.9ZM79.037,302.5v-.819h.619v.819Zm1.708,0v-.819h.615v.819Zm2.124,5.473a.08.08,0,0,1-.075-.031.191.191,0,0,1,0-.062v-.341a.168.168,0,0,1,0-.058.084.084,0,0,1,.075-.035H84.2v-6.7h.544v7.216Zm3.739,0v-7.23h.544v7.216Zm6.756,0a2.655,2.655,0,0,1-1.057-.2,1.77,1.77,0,0,1-.752-.619,1.694,1.694,0,0,1-.283-.973V304.8h.544v1.367a1.163,1.163,0,0,0,.407.885,1.712,1.712,0,0,0,1.177.363h4.261v-3.955H98.2v4.482ZM93.5,303.3v-.819h.619v.819Zm1.708,0v-.819h.615v.819Zm4.681,4.672v-7.23h.544v7.216Zm2.876.124a2.164,2.164,0,0,1-.4,1.367,2.212,2.212,0,0,1-1.239.717l-.226-.5a1.509,1.509,0,0,0,.991-.443,1.575,1.575,0,0,0,.327-1.079v-4.646h.544v4.606Zm2.137-1.478a.885.885,0,0,0,.195.628.845.845,0,0,0,.619.2h.19a.084.084,0,0,1,.075.035.167.167,0,0,1,0,.057v.341a.19.19,0,0,1,0,.062.08.08,0,0,1-.075.031H105.7a1.252,1.252,0,0,1-1.022-.38,1.491,1.491,0,0,1-.319-.991v-5.858h.549v5.862Zm8.889-.5a1.929,1.929,0,0,1-.084.566,1.27,1.27,0,0,0,.478.549,1.476,1.476,0,0,0,.814.212.08.08,0,0,1,.075.035.119.119,0,0,1,.022.057v.341a.133.133,0,0,1-.022.062c0,.022-.035.031-.075.031a1.77,1.77,0,0,1-1.526-.8,1.664,1.664,0,0,1-1.478.8,1.911,1.911,0,0,1-1.668-1,1.929,1.929,0,0,1-.65.726,1.744,1.744,0,0,1-.978.279h-2.792c-.04,0-.066,0-.075-.031a.133.133,0,0,1-.022-.062v-.341a.12.12,0,0,1,.022-.057c0-.022.035-.035.075-.035h1.327V303.49h.544v3.956h.907a1.257,1.257,0,0,0,.956-.385,1.327,1.327,0,0,0,.367-.951V303.49h.544v2.628a1.07,1.07,0,0,0,.208.619,1.664,1.664,0,0,0,.544.509,1.328,1.328,0,0,0,.681.2,1.182,1.182,0,0,0,.929-.385,1.371,1.371,0,0,0,.341-.951v-3.018h.544v3.026Zm-4.637-3.619v-.819h.619v.819Zm.854-1.571v-.819h.619v.819Zm.854,1.571v-.819h.615v.819Zm6.845,3.619a1.85,1.85,0,0,1-.093.544,1.248,1.248,0,0,0,.606.566,2.355,2.355,0,0,0,1.071.217.08.08,0,0,1,.075.035.106.106,0,0,1,0,.057v.341a.12.12,0,0,1,0,.062c0,.022-.035.031-.075.031a2.9,2.9,0,0,1-1.15-.2,1.819,1.819,0,0,1-.761-.619,1.793,1.793,0,0,1-.637.6,1.725,1.725,0,0,1-.885.221h-.863a.08.08,0,0,1-.075-.031.192.192,0,0,1,0-.062v-.341a.17.17,0,0,1,0-.058.084.084,0,0,1,.075-.035h.845a1.256,1.256,0,0,0,.956-.385,1.327,1.327,0,0,0,.363-.951V303.49h.544v2.628Zm-1.478-3.619v-.819h.624v.819Zm1.7,0v-.819h.619v.819Zm7.729,5.473a2.456,2.456,0,0,1-1.115-.248,2.137,2.137,0,0,1-.836-.757,1.894,1.894,0,0,1-.65.726,1.744,1.744,0,0,1-.978.279H119.29a.08.08,0,0,1-.075-.031.119.119,0,0,1,0-.062v-.341a.106.106,0,0,1,0-.057.084.084,0,0,1,.075-.035h1.327V303.49h.54v3.956h.911a1.257,1.257,0,0,0,.956-.385,1.327,1.327,0,0,0,.363-.951V303.49h.544v2.655a1.132,1.132,0,0,0,.248.606,1.769,1.769,0,0,0,.593.487,1.6,1.6,0,0,0,.743.186h1.071V303.07h.54v4.867Zm6.734-5.632a5.867,5.867,0,0,1-.319,2.026,3.663,3.663,0,0,1,1.164,2.7,4.356,4.356,0,0,1-.1.885H128.4l-.234-.526a13.37,13.37,0,0,0,1.863-1.327,6.393,6.393,0,0,0,1.363-1.6,7.326,7.326,0,0,0-1.27-.77,7.618,7.618,0,0,0-1.385-.531v-.571a10.706,10.706,0,0,1,2.916,1.394,6.528,6.528,0,0,0,.186-1.717v-1.77h.544v1.77Zm-.588,2.517A7.521,7.521,0,0,1,129,307.446h3.668a1.08,1.08,0,0,0,.031-.261,3.77,3.77,0,0,0-.19-1.248A3.013,3.013,0,0,0,131.807,304.857Zm2.929,3.1v-7.212h.544v7.216Zm6.756-4.575a5.718,5.718,0,0,1,1.15.15l.319.066v4.491c0,1.164-.668,1.854-2.013,2.075l-.226-.5a2.654,2.654,0,0,0,1.27-.5,1.283,1.283,0,0,0,.442-1.035v-4.084a4.527,4.527,0,0,0-.978-.133,1.628,1.628,0,0,0-.929.261,1.663,1.663,0,0,0-.588.695,2.172,2.172,0,0,0-.195.885,1.8,1.8,0,0,0,.186.805,1.512,1.512,0,0,0,.557.624,1.606,1.606,0,0,0,.885.239h.695l-.234.527h-.411a2.247,2.247,0,0,1-1.226-.319,1.991,1.991,0,0,1-.761-.841,2.491,2.491,0,0,1-.252-1.111,2.442,2.442,0,0,1,.265-1.111,2.212,2.212,0,0,1,.792-.863,2.314,2.314,0,0,1,1.265-.332Zm7.495,0a5.533,5.533,0,0,1,1.115.142l.354.075v4.358h-.544v-3.911a4.314,4.314,0,0,0-.973-.142,1.651,1.651,0,0,0-.934.261,1.686,1.686,0,0,0-.584.695,2.106,2.106,0,0,0-.195.885,1.8,1.8,0,0,0,.186.805,1.513,1.513,0,0,0,.557.624,1.592,1.592,0,0,0,.885.239h.695l-.234.527H148.9a2.274,2.274,0,0,1-1.23-.319,2.009,2.009,0,0,1-.757-.841,2.491,2.491,0,0,1-.252-1.111,2.442,2.442,0,0,1,.265-1.111,2.211,2.211,0,0,1,.792-.863,2.313,2.313,0,0,1,1.265-.332Zm-1.155-.885v-.819h.619v.819Zm1.708,0v-.819h.615v.819Zm3.053,4.119a.885.885,0,0,0,.195.628.846.846,0,0,0,.619.2h.168a.08.08,0,0,1,.075.035.12.12,0,0,1,.022.058v.341a.133.133,0,0,1-.022.062c0,.022-.035.031-.075.031h-.2a1.252,1.252,0,0,1-1.022-.38,1.491,1.491,0,0,1-.319-.991v-5.854h.544v5.862Zm3.363-3.221a2.549,2.549,0,0,1,1.327.323,1.968,1.968,0,0,1,.779.849,2.562,2.562,0,0,1,.252,1.133,4.306,4.306,0,0,1-.177,1.164,5.51,5.51,0,0,1-.416,1.106h-4.146a.08.08,0,0,1-.075-.031.192.192,0,0,1,0-.062v-.341a.169.169,0,0,1,0-.058.084.084,0,0,1,.075-.035h.885V303.6a7.467,7.467,0,0,1,1.5-.195Zm-.027.526a4.461,4.461,0,0,0-.929.1v3.42h2.4a4.177,4.177,0,0,0,.367-1.721,1.959,1.959,0,0,0-.442-1.265,1.694,1.694,0,0,0-1.4-.535Zm4.486,2.694a.885.885,0,0,0,.195.628.841.841,0,0,0,.619.2h.186a.08.08,0,0,1,.075.035.106.106,0,0,1,0,.058v.341a.119.119,0,0,1,0,.062c0,.022-.035.031-.075.031h-.2a1.252,1.252,0,0,1-1.022-.38,1.491,1.491,0,0,1-.319-.991v-5.854h.544v5.862Zm3.248-3.221a1.955,1.955,0,0,1,1.438.549,4.208,4.208,0,0,1,.925,1.487l.513,1.305a1.048,1.048,0,0,0,.442.54,1.5,1.5,0,0,0,.761.168.08.08,0,0,1,.075.035.107.107,0,0,1,0,.058v.341a.12.12,0,0,1,0,.062c0,.022-.035.031-.075.031a1.708,1.708,0,0,1-1.46-.659,5.282,5.282,0,0,1-1.363.491,6.514,6.514,0,0,1-1.456.168h-2.035a.08.08,0,0,1-.075-.031.19.19,0,0,1,0-.062v-.341a.168.168,0,0,1,0-.058.084.084,0,0,1,.075-.035h2.035a7.08,7.08,0,0,0,2.61-.5l-.044-.1-.58-1.4a2.681,2.681,0,0,0-.774-1.146,1.908,1.908,0,0,0-1.195-.354,2.373,2.373,0,0,0-1.15.332l-.226-.473a5.634,5.634,0,0,1,.792-.314,2.711,2.711,0,0,1,.779-.089Zm6.429,0a2.5,2.5,0,0,1,1.327.323,2.163,2.163,0,0,1,.823.849,2.376,2.376,0,0,1,.274,1.115,2.429,2.429,0,0,1-.226,1.053,1.212,1.212,0,0,0,.478.513,1.457,1.457,0,0,0,.788.195.084.084,0,0,1,.075.035.107.107,0,0,1,0,.058v.341a.12.12,0,0,1,0,.062.08.08,0,0,1-.075.031,1.8,1.8,0,0,1-1.535-.8,1.951,1.951,0,0,1-.734.588,2.3,2.3,0,0,1-1,.212h-2.553a.08.08,0,0,1-.075-.031.189.189,0,0,1,0-.062v-.341a.168.168,0,0,1,0-.058.084.084,0,0,1,.075-.035h.885V303.6a7.467,7.467,0,0,1,1.5-.195Zm-.031.526a4.423,4.423,0,0,0-.925.1v3.42h1.084a1.712,1.712,0,0,0,1.27-.442,1.743,1.743,0,0,0,.442-1.288,1.906,1.906,0,0,0-.208-.885,1.615,1.615,0,0,0-.633-.659,2,2,0,0,0-1.035-.252Zm5.531,2.212a1.628,1.628,0,0,1-.1.557,1.234,1.234,0,0,0,.487.557,1.483,1.483,0,0,0,.818.212.084.084,0,0,1,.075.035.105.105,0,0,1,0,.057v.341a.119.119,0,0,1,0,.062.08.08,0,0,1-.075.031,1.77,1.77,0,0,1-1.544-.845,1.805,1.805,0,0,1-.637.588,1.77,1.77,0,0,1-.885.221h-.208a.08.08,0,0,1-.075-.031.12.12,0,0,1,0-.062v-.341a.106.106,0,0,1,0-.057.084.084,0,0,1,.075-.036h.186a1.256,1.256,0,0,0,.956-.385,1.327,1.327,0,0,0,.367-.951v-5.354h.544V306.1Zm1.208,1.854c-.04,0-.062,0-.075-.031a.12.12,0,0,1,0-.062v-.341a.107.107,0,0,1,0-.057.079.079,0,0,1,.075-.035h1.327v-6.716h.544v7.216Z" transform="translate(29.029 -131.748)" fill="#a39d81"/>
        <text id="SOLUTIONS_PIONEERS_LAW_FIRM" data-name="SOLUTIONS PIONEERS LAW FIRM" transform="translate(103.155 179.724)" fill="#a39d81" font-size="1" font-family="Lato"><tspan x="0" y="0">SOLUTIONS PIONEERS LAW FIRM</tspan></text>
        <rect id="Rectangle_19370" data-name="Rectangle 19370" width="17.03" height="0.305" transform="translate(83.259 182.228)" fill="#a39d81"/>
        <rect id="Rectangle_19371" data-name="Rectangle 19371" width="17.03" height="0.305" transform="translate(191.599 182.228)" fill="#a39d81"/>
        <g id="Group_76343" data-name="Group 76343" transform="translate(0 0)" clip-path="url(#clip-path-3)">
          <path id="Path_2526" data-name="Path 2526" d="M154.548,138.542v23.383H137.806V138.511h-1.7c.288,1.464.637,2.907.841,4.371.606,4.4-1.071,8.044-3.916,11.229-3.367,3.77-7.849,5.477-12.592,6.61-6.836,1.633-13.782,1.58-20.711.969a46.918,46.918,0,0,1-17.224-4.424c-2.783-1.407-5.407-3.141-8.1-4.739a5.746,5.746,0,0,1-.642-.549l1.982-1.721c.752.5,1.513,1,2.256,1.522a38.192,38.192,0,0,0,14.875,6.23,74.33,74.33,0,0,0,14.2,1.433c1.686,0,3.367-.159,5.053-.234.987-.044,1.464-.389,1.456-1.535-.058-5.694-.031-11.4-.022-17.1,0-.549.071-1.1.119-1.863a28.62,28.62,0,0,1,2.978.885c2.38.942,4.73,1.956,7.079,2.942a1.5,1.5,0,0,1,.942,1.624c-.044,3.668,0,7.34,0,11.061,3.951-1.734,6.712-7.172,4.942-10.548a10.73,10.73,0,0,0-5.11-4.424,56.116,56.116,0,0,0-12.995-4.208c-6.942-1.549-13.928-2.933-20.83-4.654a31.879,31.879,0,0,1-12.057-5.818c-6.774-5.287-5.915-14.6-1.1-19.556A24.9,24.9,0,0,1,90.8,99.187a76.482,76.482,0,0,1,12.123-1.46,74.174,74.174,0,0,1,9.561.73c.836.071,1.672.217,2.5.221,12.1,0,24.2-.04,36.28.031a41.421,41.421,0,0,1,13.614,1.88c4.774,1.672,9.079,4.106,12.158,8.278,5.7,7.725,4.031,17.906-3.832,23.706a28.759,28.759,0,0,1-13.822,5.464c-1.549.19-3.1.354-4.867.549m-21.516-32.042a13.6,13.6,0,0,0-1.212.8c-.925.849-1.7.637-2.739,0a43.8,43.8,0,0,0-6.384-3.314,59.261,59.261,0,0,0-16.932-3.677,33.873,33.873,0,0,0-15.8,1.956c-3.2,1.261-6.088,3.009-7.756,6.194-1.894,3.584-1.54,8.079,2.894,10.136a23.781,23.781,0,0,0,4.009,1.593c6.3,1.637,12.632,3.19,18.954,4.756,1.77.442,3.54.827,5.561,1.292V103.717a3.434,3.434,0,0,1,.8,0c3.163,1.119,6.318,2.265,9.481,3.376.805.279.792.885.788,1.553q0,9.822-.031,19.644a1.914,1.914,0,0,0,1.327,2.155A22.524,22.524,0,0,1,133.275,135a1.274,1.274,0,0,0,.7.394c1.23.04,2.46,0,3.809,0v-1.584c0-5.862.031-11.725-.027-17.583,0-1.146.363-1.429,1.438-1.42q7.057.075,14.109,0c1.026,0,1.279.341,1.27,1.327-.035,5.579,0,11.154,0,16.733v1.407a22.224,22.224,0,0,0,7.557-3.469c8.238-5.752,8.915-16.149,1.478-22.887-4.774-4.331-10.565-5.96-16.813-6.066-6.911-.124-13.826-.027-20.737,0-.288,0-.575.04-.726.049l7.681,4.654m17.56,31.856c0-.73.053-1.407,0-2.079-.088-.938.168-1.469,1.221-1.376.708.062.978-.314.973-1.031-.022-4.079,0-8.154,0-12.233a1.72,1.72,0,0,0-1.6-1.9c-1.155,0-1.416.885-1.588,1.77a4.424,4.424,0,0,0,0,.726q0,17.007,0,34.028a2.28,2.28,0,0,0,.2,1.279c.35.442.911,1.035,1.389,1.04s1.049-.566,1.4-1.022a2.233,2.233,0,0,0,.2-1.274V139.63c0-.35-.04-.7-.066-1.093l-2.1-.137m-5-2.863a2.621,2.621,0,0,1,.593-.1c1.3.137,1.6-.5,1.566-1.712-.08-3.15-.031-6.3-.031-9.459,0-.969.027-1.938,0-2.907a1.416,1.416,0,0,0-1.473-1.566c-.938-.013-1.429.611-1.526,1.535a5.459,5.459,0,0,0,0,.6v34.8a3.413,3.413,0,0,0,0,.6,1.5,1.5,0,0,0,2.986.049,3.4,3.4,0,0,0,0-.6V139.44a7.153,7.153,0,0,0-.106-.885l-2.018-.164Zm-4.818,0c1.987-.195,1.991-.195,1.991-2.119V121.384a1.4,1.4,0,0,0-1.425-1.606c-.982-.031-1.438.58-1.487,1.526v35.524c0,1.354.566,2,1.606,1.867,1.15-.146,1.327-.982,1.327-1.951V140.259c0-1.708,0-1.708-1.721-1.841-.071,0-.137-.066-.27-.137Z" transform="translate(18.495 -18.897)" fill="#a39d81"/>
          <path id="Path_2527" data-name="Path 2527" d="M214.477,121.536H228.09a4.455,4.455,0,0,1,4.579,3.783,4.535,4.535,0,0,1-3.1,5.106,4.393,4.393,0,0,1-5.486-2.239,1.526,1.526,0,0,0-1.655-.978q-8.075.04-16.145,0a1.562,1.562,0,0,0-1.659,1,4.424,4.424,0,0,1-4.929,2.407,4.61,4.61,0,0,1-3.624-4.022,4.526,4.526,0,0,1,2.889-4.8,5,5,0,0,1,1.77-.252h13.738m0,2.256H200.615a2.137,2.137,0,0,0-2.106,1.305,1.881,1.881,0,0,0,.274,2.332,3.478,3.478,0,0,0,2.035,1,2.155,2.155,0,0,0,2.066-1.721c.513-1.77.54-1.77,2.371-1.77,6.194,0,12.388.044,18.556-.031,1.292,0,1.867.327,2.071,1.637a2.284,2.284,0,0,0,2.624,1.889,2.515,2.515,0,0,0,2.035-2.491,2.323,2.323,0,0,0-2.575-2.141H214.472" transform="translate(-49.698 -32.18)" fill="#a39d81"/>
        </g>
      </g>
    </g>
  </g>
</svg>
