<svg xmlns="http://www.w3.org/2000/svg" xmlns:xlink="http://www.w3.org/1999/xlink" width="44.432" height="44.432" viewBox="0 0 44.432 44.432">
  <defs>
    <clipPath id="clip-path">
      <path id="Path_25659" data-name="Path 25659" d="M0-682.665H44.432v44.432H0Z" transform="translate(0 682.665)" fill="#fff"/>
    </clipPath>
  </defs>
  <g id="svgexport-17_6_" data-name="svgexport-17 (6)" transform="translate(0 -0.002)">
    <g id="Group_76523" data-name="Group 76523" transform="translate(0 0.002)" clip-path="url(#clip-path)">
      <path id="Path_25654" data-name="Path 25654" d="M-364.15-57.608a17.684,17.684,0,0,1,5.425,2.249l1.579-1.579a1.784,1.784,0,0,1,2.516,0l3.145,3.145a1.784,1.784,0,0,1,0,2.516l-1.58,1.58a17.691,17.691,0,0,1,2.249,5.425h2.232a1.784,1.784,0,0,1,1.779,1.779v4.448a1.784,1.784,0,0,1-1.779,1.779h-2.232a17.684,17.684,0,0,1-2.249,5.425l1.579,1.579a1.784,1.784,0,0,1,0,2.516l-3.145,3.145a1.784,1.784,0,0,1-2.516,0l-1.579-1.579a17.686,17.686,0,0,1-5.425,2.249V-20.7a1.784,1.784,0,0,1-1.779,1.779h-4.448a1.784,1.784,0,0,1-1.779-1.779v-2.232a17.685,17.685,0,0,1-5.425-2.249l-1.579,1.579a1.784,1.784,0,0,1-2.516,0l-3.145-3.145a1.784,1.784,0,0,1,0-2.516l1.579-1.579a17.688,17.688,0,0,1-2.249-5.425h-2.232a1.784,1.784,0,0,1-1.779-1.779v-4.448a1.784,1.784,0,0,1,1.779-1.779h2.232a17.688,17.688,0,0,1,2.249-5.425l-1.579-1.579a1.784,1.784,0,0,1,0-2.516l3.145-3.145a1.784,1.784,0,0,1,2.516,0l1.579,1.579a17.686,17.686,0,0,1,5.425-2.249V-59.84a1.784,1.784,0,0,1,1.779-1.779h4.448a1.784,1.784,0,0,1,1.779,1.779Z" transform="translate(390.368 62.486)" fill="none" stroke="#fff" stroke-linecap="round" stroke-linejoin="round" stroke-width="2"/>
      <path id="Path_25655" data-name="Path 25655" d="M-274.045-352.486a12.957,12.957,0,0,1-6.061,1.5,13.017,13.017,0,0,1-13.017-13.017,12.957,12.957,0,0,1,1.495-6.06m5.461-5.461a12.959,12.959,0,0,1,6.061-1.5,13.017,13.017,0,0,1,13.017,13.017,12.959,12.959,0,0,1-1.5,6.06" transform="translate(302.322 386.223)" fill="none" stroke="#fff" stroke-linecap="round" stroke-linejoin="round" stroke-width="2"/>
      <path id="Path_25656" data-name="Path 25656" d="M-8.68-92.927a2.063,2.063,0,0,1,0-2.918,2.063,2.063,0,0,1,2.918,0l2.381,2.381,5.328-5.328a2.063,2.063,0,0,1,2.918,0,2.063,2.063,0,0,1,0,2.918l-6.787,6.787a2.063,2.063,0,0,1-2.918,0Z" transform="translate(24.123 116.156)" fill="none" stroke="#fff" stroke-linecap="round" stroke-linejoin="round" stroke-width="2"/>
      <path id="Path_25657" data-name="Path 25657" d="M0-.006H0" transform="translate(13.011 13.018)" fill="none" stroke="#fff" stroke-linecap="round" stroke-linejoin="round" stroke-width="2"/>
      <path id="Path_25658" data-name="Path 25658" d="M0-.007H0" transform="translate(31.42 31.428)" fill="none" stroke="#fff" stroke-linecap="round" stroke-linejoin="round" stroke-width="2"/>
    </g>
  </g>
</svg>
