<svg xmlns="http://www.w3.org/2000/svg" width="50.468" height="54.015" viewBox="0 0 50.468 54.015">
  <g id="svgexport-17_62_" data-name="svgexport-17 (62)" transform="translate(-2 -1)">
    <path id="Path_2517" data-name="Path 2517" d="M15,12H29.186v7.093H15Z" transform="translate(2.186 1.822)" fill="none" stroke="#2bb673" stroke-width="2"/>
    <path id="Path_2518" data-name="Path 2518" d="M12.457,44.557H34.918a3.546,3.546,0,0,0,3.546-3.546V5.546A3.546,3.546,0,0,0,34.918,2H12.457Zm2.364-31.918A1.182,1.182,0,0,1,16,11.457h16.55a1.182,1.182,0,0,1,1.182,1.182V22.1a1.182,1.182,0,0,1-1.182,1.182H16A1.182,1.182,0,0,1,14.822,22.1ZM3,5.546V41.011a3.546,3.546,0,0,0,3.546,3.546h3.546V2H6.546A3.546,3.546,0,0,0,3,5.546Z" transform="translate(0 0)" fill="none" stroke="#2bb673" stroke-width="2"/>
    <path id="Path_2519" data-name="Path 2519" d="M27.55,48.922H42.918A1.182,1.182,0,0,0,44.1,47.74V41.829H39.253a5.911,5.911,0,0,1-5.793,4.729H11V47.74a1.182,1.182,0,0,0,1.182,1.182ZM39.372,13.457H44.1V39.465H39.372ZM44.1,6.364V5.182A1.182,1.182,0,0,0,42.918,4H39.253a6.467,6.467,0,0,1,.118,1.182v5.911H44.1Z" transform="translate(1.457 0.364)" fill="none" stroke="#2bb673" stroke-width="2"/>
    <path id="Path_2520" data-name="Path 2520" d="M48.918,49.74V9.546A3.546,3.546,0,0,0,45.372,6V47.375a3.546,3.546,0,0,1-3.546,3.546H26.457v2.364H45.372A3.546,3.546,0,0,0,48.918,49.74ZM17,52.1a1.171,1.171,0,0,0,1.182,1.182h5.911V50.922H17Z" transform="translate(2.55 0.729)" fill="none" stroke="#2bb673" stroke-width="2"/>
  </g>
</svg>
