<svg xmlns="http://www.w3.org/2000/svg" width="74.984" height="71.792" viewBox="0 0 74.984 71.792">
  <g id="svgexport-17_61_" data-name="svgexport-17 (61)" transform="translate(0.999 1)">
    <path id="Path_2516" data-name="Path 2516" d="M47.41,74.838l7.617-6.792,3.235,2.566-5.94,9.272L47.41,74.838Zm12.163-3.451L53.087,81.513a.761.761,0,0,1-1.186.12l-1.348-1.385-1.18,1.791.9,7.534h5.351L62.683,72.63q-1.56-.611-3.111-1.242ZM40.719,81.633a.761.761,0,0,1-1.186-.12L33.047,71.388q-1.551.632-3.111,1.242l7.057,16.943h5.351l.9-7.534-1.18-1.791ZM30.734,45.206a.4.4,0,0,0-.275.217c-.282.454.105,1.909.313,2.69.111.416.215.809.266,1.13l0,.029a18.527,18.527,0,0,0,.474,2.364c.23.74.431.809.433.81s.351.068,1.294-.852a51.975,51.975,0,0,1-.873-5.742c-1-.67-1.472-.68-1.635-.647ZM16.181,84.838v4.735H35.345L28.52,73.187C20.8,76.224,16.181,78.274,16.181,84.838Zm52.15-2.9a3.851,3.851,0,0,1-1.067-3.6,2.328,2.328,0,0,0-.979-2.362,3.9,3.9,0,0,1-1.736-2.612l-.45-.178L57.275,89.573H71.916l.324-6.6a2.661,2.661,0,0,0-.31.033,3.848,3.848,0,0,1-3.6-1.067Zm-23.62.676-.834,6.959h4.866l-.834-6.959Zm-.265-1.522h3.728l1.292-1.961L46.31,75.89l-3.156,3.242Zm36.444,2.89a3.934,3.934,0,0,1-6.6,0,2.517,2.517,0,0,0-.551-.566l-.627,12.79L77.1,92.88a.761.761,0,0,1,.974,0l3.99,3.327-.627-12.79a2.513,2.513,0,0,0-.551.566Zm-3.3-14.557a3.252,3.252,0,1,0,3.253,3.252A3.256,3.256,0,0,0,77.591,69.425ZM45.211,74.838l-7.617-6.792-3.235,2.566,5.94,9.272ZM43.984,64.791a1.892,1.892,0,0,0,1.227.083,6.947,6.947,0,0,1,1.091-.107h.016a6.942,6.942,0,0,1,1.091.107,1.9,1.9,0,0,0,1.227-.083c1.034-.406,3.212-2.373,5.825-5.261,3.11-3.435,4.075-11.609,4.3-14.117a9.277,9.277,0,0,0-.927-3.426,6.746,6.746,0,0,1-1.082,1.276.761.761,0,0,1-1.27-.424,6.177,6.177,0,0,0-1.927-3.844c-1.331,2.076-4.212,1.9-7.246,1.706-4.424-.276-9.43-.589-12.441,4.853.249,2.659,1.235,10.6,4.288,13.976,2.615,2.888,4.792,4.855,5.825,5.261Zm45.181,7.886a2.338,2.338,0,0,1-1.15,2.058,3.848,3.848,0,0,0-1.6,3.857A2.417,2.417,0,0,1,83.507,81.5a3.85,3.85,0,0,0-3.857,1.6,2.417,2.417,0,0,1-4.117,0,3.834,3.834,0,0,0-3.164-1.657,4.144,4.144,0,0,0-.693.059,2.417,2.417,0,0,1-2.911-2.911,3.848,3.848,0,0,0-1.6-3.857,2.417,2.417,0,0,1,0-4.117,3.849,3.849,0,0,0,1.6-3.857,2.417,2.417,0,0,1,2.911-2.911,3.848,3.848,0,0,0,3.857-1.6,2.417,2.417,0,0,1,4.117,0,3.849,3.849,0,0,0,3.857,1.6,2.417,2.417,0,0,1,2.911,2.911,3.848,3.848,0,0,0,1.6,3.857,2.339,2.339,0,0,1,1.15,2.058Zm-6.8,0a4.774,4.774,0,1,0-4.774,4.774A4.78,4.78,0,0,0,82.366,72.678Zm-35.96-33.5c3.439.215,5.417.254,6.087-1.437a.761.761,0,0,1,.856-.466c1.61.321,2.683,2.027,3.261,3.8a2.119,2.119,0,0,0,.323-.823.761.761,0,0,1,1.354-.4,9.454,9.454,0,0,1,1.492,2.889c2.39-6.451,1.822-9.285.839-10.529-1.43-1.81-4.5-1.287-5.98-1.035-.137.023-.26.044-.367.061a.761.761,0,0,1-.805-.427c-.964-2.041-4.086-3.171-7.638-3.171a17.079,17.079,0,0,0-6.709,1.363c-2.877,1.253-8.972,5.13-5.873,14.673,3.541-5.1,9.052-4.753,13.161-4.5ZM52.68,63.569a13.322,13.322,0,0,1-3.487,2.639,3.369,3.369,0,0,1-2.024.169,4.237,4.237,0,0,0-1.717,0,4.886,4.886,0,0,1-.8.081,3.271,3.271,0,0,1-1.227-.251,13.323,13.323,0,0,1-3.487-2.639,25.872,25.872,0,0,1-.622,3.977L46.31,73.78,53.3,67.546a25.836,25.836,0,0,1-.623-3.977Zm6.7-11.974c.942.919,1.29.853,1.293.852s.2-.07.433-.81a18.511,18.511,0,0,0,.474-2.364l0-.029c.051-.321.156-.714.266-1.13.208-.782.594-2.236.313-2.69a.4.4,0,0,0-.275-.217c-.165-.033-.638-.023-1.635.647A52.028,52.028,0,0,1,59.377,51.595Z" transform="translate(-16.18 -27.643)" fill="none" stroke="#2bb673" stroke-width="2"/>
  </g>
</svg>
