<svg xmlns="http://www.w3.org/2000/svg" width="40.702" height="40.704" viewBox="0 0 40.702 40.704">
  <g id="svgexport-17_1_" data-name="svgexport-17 (1)" transform="translate(-0.425 -0.425)">
    <path id="Path_206" data-name="Path 206" d="M10.643.525A2.705,2.705,0,0,0,7.956,3.233l.015,9.442A.675.675,0,1,0,9.32,12.67L9.3,3.235a1.334,1.334,0,0,1,1.339-1.362l27.671.01a1.286,1.286,0,0,1,1.03.388,1.411,1.411,0,0,1,.334.969l-.015,14.827a1.344,1.344,0,0,1-1.351,1.362L28.2,19.424a.676.676,0,0,0-.643.892l.727,2.18-4.437-2.958a.676.676,0,0,0-.375-.115H10.661a1.29,1.29,0,0,1-1.328-1.331l-.008-2.8a.675.675,0,1,0-1.349.005l0,1.423H3.236a2.707,2.707,0,0,0-2.022.829,2.759,2.759,0,0,0-.688,1.882L.538,34.262a2.721,2.721,0,0,0,2.7,2.71l7.828-.005-1.051,3.157a.675.675,0,0,0,1.015.775l5.9-3.934h13.96a2.682,2.682,0,0,0,2.68-2.677l.015-10.164a.675.675,0,1,0-1.349,0l-.015,10.164a1.29,1.29,0,0,1-1.331,1.328H16.729a.676.676,0,0,0-.375.115L11.92,38.688l.727-2.185a.676.676,0,0,0-.637-.887l-8.766.008a1.351,1.351,0,0,1-1.356-1.362l-.015-14.83a1.419,1.419,0,0,1,.334-.969,1.287,1.287,0,0,1,1.03-.39l4.743.01a2.686,2.686,0,0,0,2.68,2.688H23.267l5.9,3.934a.674.674,0,0,0,1.015-.773L29.129,20.77l9.179.005a2.717,2.717,0,0,0,2.7-2.708l.015-14.827a2.755,2.755,0,0,0-.686-1.882A2.721,2.721,0,0,0,38.316.53Zm13.59,4.192A.675.675,0,1,0,23.642,3.5a2.708,2.708,0,0,0-1.428,1.752H18.073a.677.677,0,0,0-.6.377s-3.264,5.189-3.34,5.339a1,1,0,0,0-.025.709,6.346,6.346,0,0,0,.495,1.3,4.259,4.259,0,0,0,.742,1.1,1.9,1.9,0,0,0,1.346.622l2.7-.005a1.993,1.993,0,0,0,1.379-.612,4.1,4.1,0,0,0,.778-1.1,7.881,7.881,0,0,0,.507-1.3.754.754,0,0,0-.025-.706L19.295,6.606h2.925a2.708,2.708,0,0,0,1.93,1.93v7.517H20.07A.675.675,0,0,0,20.1,17.4h9.442a.676.676,0,1,0,0-1.351H25.5V8.537a2.711,2.711,0,0,0,1.925-1.928h2.927s-2.588,4.1-2.726,4.36a1.139,1.139,0,0,0,0,.816,6.07,6.07,0,0,0,.462,1.2,4.259,4.259,0,0,0,.742,1.1,1.908,1.908,0,0,0,1.344.622L32.88,14.7a1.993,1.993,0,0,0,1.379-.612,4.078,4.078,0,0,0,.773-1.1,7.264,7.264,0,0,0,.518-1.321.933.933,0,0,0-.026-.673c-.051-.094-3.381-5.416-3.381-5.416a.683.683,0,0,0-.586-.319H27.428a2.693,2.693,0,0,0-.334-.78.676.676,0,0,0-1.137.732,1.336,1.336,0,0,1-1.135,2.07,1.307,1.307,0,0,1-1.351-1.344,1.352,1.352,0,0,1,.765-1.216ZM18.078,7.2l2.155,3.45H15.921Zm13.494.005,2.152,3.445H29.415ZM15.669,12h4.809c-.224.469-.375,1.351-1.091,1.351h-2.7c-.62,0-.79-.836-1.017-1.351Zm13.5,0h4.806c-.25.5-.377,1.351-1.1,1.351h-2.7C29.545,13.353,29.376,12.507,29.165,12ZM8.287,25.493a.676.676,0,0,0,0,1.351H25.83a.676.676,0,0,0,0-1.351Zm0,2.7a.673.673,0,0,0,0,1.346H25.83a.675.675,0,0,0,0-1.349Zm0,2.7a.676.676,0,0,0,0,1.351H25.83a.676.676,0,0,0,0-1.351Z" fill="#fff" stroke="#fff" stroke-width="0.2"/>
  </g>
</svg>
