<svg id="svgexport-6_18_" data-name="svgexport-6 (18)" xmlns="http://www.w3.org/2000/svg" width="29.711" height="20.961" viewBox="0 0 29.711 20.961">
  <g id="Group_202" data-name="Group 202">
    <path id="Path_167" data-name="Path 167" d="M6.546,19.107a16.792,16.792,0,0,1-3.06,4.833A1.461,1.461,0,0,0,3.347,25.7a1.434,1.434,0,0,0,1.228.673,1.209,1.209,0,0,0,.416-.059c2.912-.852,9.715-3.872,9.9-13.558A7.137,7.137,0,0,0,8.675,5.45,6.943,6.943,0,0,0,1,12.362,6.864,6.864,0,0,0,6.546,19.107Z" transform="translate(-1 -5.414)" fill="#a39d81"/>
    <path id="Path_168" data-name="Path 168" d="M24.635,5.45a6.941,6.941,0,0,0-7.665,6.913,6.864,6.864,0,0,0,5.546,6.744,16.793,16.793,0,0,1-3.06,4.833,1.461,1.461,0,0,0-.139,1.763,1.434,1.434,0,0,0,1.228.673,1.208,1.208,0,0,0,.416-.059c2.912-.852,9.715-3.872,9.9-13.558V12.62a7.13,7.13,0,0,0-6.229-7.17Z" transform="translate(-1.154 -5.414)" fill="#a39d81"/>
  </g>
</svg>
