<svg id="svgexport-18" xmlns="http://www.w3.org/2000/svg" width="43.578" height="59.425" viewBox="0 0 43.578 59.425">
  <path id="Path_25609" data-name="Path 25609" d="M52.226,20.342a7.171,7.171,0,0,1-.931-1.78,7.447,7.447,0,0,1-.1-2.095,6.489,6.489,0,0,0-.538-3.575A6.527,6.527,0,0,0,47.8,10.62a7.29,7.29,0,0,1-1.739-1.107,7.32,7.32,0,0,1-1.107-1.739,6.529,6.529,0,0,0-2.271-2.858,6.5,6.5,0,0,0-3.575-.537,7.451,7.451,0,0,1-2.095-.1,7.159,7.159,0,0,1-1.781-.931A6.573,6.573,0,0,0,31.789,2a6.573,6.573,0,0,0-3.447,1.352,7.17,7.17,0,0,1-1.781.931,7.523,7.523,0,0,1-2.094.1,6.5,6.5,0,0,0-3.576.538A6.527,6.527,0,0,0,18.62,7.774a7.289,7.289,0,0,1-1.107,1.739,7.32,7.32,0,0,1-1.739,1.107,6.529,6.529,0,0,0-2.858,2.271,6.5,6.5,0,0,0-.537,3.575,7.449,7.449,0,0,1-.1,2.095,7.159,7.159,0,0,1-.931,1.782A6.573,6.573,0,0,0,10,23.789a6.573,6.573,0,0,0,1.352,3.447,7.17,7.17,0,0,1,.931,1.781,7.447,7.447,0,0,1,.1,2.094,6.489,6.489,0,0,0,.538,3.576,6.527,6.527,0,0,0,2.857,2.271,7.289,7.289,0,0,1,1.739,1.108A7.32,7.32,0,0,1,18.62,39.8a12.557,12.557,0,0,0,.962,1.626L14.021,56.708a.99.99,0,0,0,1.248,1.278l5.257-1.776,2.886,4.74a.99.99,0,0,0,.847.475c.032,0,.064,0,.1,0a.989.989,0,0,0,.833-.648l5.583-15.335a3.744,3.744,0,0,0,2.035,0l5.582,15.335a.989.989,0,0,0,.833.648c.033,0,.066,0,.1,0a.99.99,0,0,0,.846-.475l2.886-4.741,5.257,1.776a.99.99,0,0,0,1.248-1.277L44,41.429a12.627,12.627,0,0,0,.961-1.625,7.29,7.29,0,0,1,1.109-1.739A7.32,7.32,0,0,1,47.8,36.957a6.529,6.529,0,0,0,2.858-2.271,6.5,6.5,0,0,0,.537-3.575,7.449,7.449,0,0,1,.1-2.095,7.159,7.159,0,0,1,.931-1.781,6.573,6.573,0,0,0,1.353-3.447A6.573,6.573,0,0,0,52.226,20.342ZM24.033,58.159,21.807,54.5a.99.99,0,0,0-1.164-.423l-4.056,1.37,4.6-12.641a7.134,7.134,0,0,0,3.278.391,7.49,7.49,0,0,1,2.095.1,7.159,7.159,0,0,1,1.782.931c.2.129.409.259.621.386Zm18.9-4.079a.99.99,0,0,0-1.164.423l-2.226,3.657L34.613,44.612c.213-.129.421-.258.622-.386a7.17,7.17,0,0,1,1.78-.931,7.482,7.482,0,0,1,2.095-.1,7.117,7.117,0,0,0,3.279-.392l4.6,12.642Zm7.619-27.908a8.638,8.638,0,0,0-1.173,2.334,8.963,8.963,0,0,0-.162,2.686,4.988,4.988,0,0,1-.272,2.5A5.013,5.013,0,0,1,46.887,35.2a8.785,8.785,0,0,0-2.223,1.463A8.759,8.759,0,0,0,43.2,38.887a5.013,5.013,0,0,1-1.506,2.06,5,5,0,0,1-2.5.271,9,9,0,0,0-2.686.162,8.646,8.646,0,0,0-2.333,1.173A5.03,5.03,0,0,1,31.789,43.6a5.03,5.03,0,0,1-2.382-1.043,8.638,8.638,0,0,0-2.334-1.173,6.548,6.548,0,0,0-1.7-.188c-.331,0-.661.013-.986.026a5,5,0,0,1-2.5-.271,5.013,5.013,0,0,1-1.506-2.06,8.785,8.785,0,0,0-1.463-2.223A8.759,8.759,0,0,0,16.69,35.2a5.013,5.013,0,0,1-2.06-1.506,4.989,4.989,0,0,1-.271-2.5A8.965,8.965,0,0,0,14.2,28.5a8.646,8.646,0,0,0-1.173-2.333,5.03,5.03,0,0,1-1.043-2.382,5.03,5.03,0,0,1,1.043-2.382A8.638,8.638,0,0,0,14.2,19.073a8.963,8.963,0,0,0,.162-2.686,4.988,4.988,0,0,1,.272-2.5,5.013,5.013,0,0,1,2.059-1.506,8.785,8.785,0,0,0,2.223-1.463A8.759,8.759,0,0,0,20.377,8.69a5.013,5.013,0,0,1,1.506-2.06,4.993,4.993,0,0,1,2.5-.271A9,9,0,0,0,27.074,6.2a8.646,8.646,0,0,0,2.333-1.173,5.03,5.03,0,0,1,2.382-1.043,5.03,5.03,0,0,1,2.382,1.043A8.638,8.638,0,0,0,36.505,6.2a9,9,0,0,0,2.686.162,4.989,4.989,0,0,1,2.5.272A5.013,5.013,0,0,1,43.2,8.69a8.785,8.785,0,0,0,1.463,2.223,8.759,8.759,0,0,0,2.223,1.464,5.013,5.013,0,0,1,2.06,1.506,4.989,4.989,0,0,1,.271,2.5,8.965,8.965,0,0,0,.162,2.686,8.646,8.646,0,0,0,1.173,2.333A5.03,5.03,0,0,1,51.6,23.789,5.03,5.03,0,0,1,50.554,26.171Z" transform="translate(-10 -2)" fill="#fff"/>
  <path id="Path_25610" data-name="Path 25610" d="M31.846,8A15.846,15.846,0,1,0,47.693,23.846,15.846,15.846,0,0,0,31.846,8Zm0,29.712A13.866,13.866,0,1,1,45.712,23.846,13.866,13.866,0,0,1,31.846,37.712Z" transform="translate(-10.058 -2.058)" fill="#fff"/>
  <path id="Path_25611" data-name="Path 25611" d="M35.453,18.953l-2.666-5.4a1.03,1.03,0,0,0-1.776,0l-2.664,5.4-5.962.867a.99.99,0,0,0-.549,1.689l4.313,4.2-1.018,5.937a.99.99,0,0,0,1.437,1.044l5.331-2.8,5.331,2.8a.99.99,0,0,0,1.437-1.044L37.65,25.713l4.313-4.2a.99.99,0,0,0-.55-1.689Zm.441,5.706a.99.99,0,0,0-.284.877l.767,4.473L32.361,27.9a.99.99,0,0,0-.923,0l-4.015,2.112.767-4.473a.99.99,0,0,0-.284-.876l-3.25-3.168,4.49-.653a.989.989,0,0,0,.746-.542L31.9,16.229,33.907,20.3a.989.989,0,0,0,.746.542l4.49.654Z" transform="translate(-10.111 -2.106)" fill="#fff"/>
</svg>
