<svg xmlns="http://www.w3.org/2000/svg" width="68.373" height="68.373" viewBox="0 0 68.373 68.373">
  <g id="svgexport-17_1_" data-name="svgexport-17 (1)" transform="translate(-2 -2)">
    <path id="Path_25621" data-name="Path 25621" d="M34.791,20.233a9.116,9.116,0,1,1,9.116-9.116,9.116,9.116,0,0,1-9.116,9.116Zm0-15.954a6.837,6.837,0,1,0,6.837,6.837,6.837,6.837,0,0,0-6.837-6.837ZM48.466,32.768a1.14,1.14,0,0,1-1.14-1.14V27.07c0-1.161-4.425-3.419-12.535-3.419S22.256,25.909,22.256,27.07v4.558a1.14,1.14,0,0,1-2.279,0V27.07c0-3.74,7.453-5.7,14.814-5.7s14.814,1.958,14.814,5.7v4.558A1.14,1.14,0,0,1,48.466,32.768Zm2.279,26.21a1.14,1.14,0,0,1-1.14-1.14V43.024a1.139,1.139,0,0,1,.552-.976L55.3,38.96V36.187H14.279V38.96l5.145,3.087a1.14,1.14,0,0,1,.553.977V57.838a1.14,1.14,0,0,1-2.279,0V43.669l-5.145-3.087A1.14,1.14,0,0,1,12,39.605V35.047a1.14,1.14,0,0,1,1.14-1.14h43.3a1.14,1.14,0,0,1,1.14,1.14v4.558a1.139,1.139,0,0,1-.552.976l-5.145,3.087V57.838A1.14,1.14,0,0,1,50.745,58.978Z" transform="translate(1.396)" fill="#fff"/>
    <path id="Path_25622" data-name="Path 25622" d="M47.582,40.279H24.791a1.14,1.14,0,1,1,0-2.279H47.582a1.14,1.14,0,0,1,0,2.279Zm-26.21,25.07a1.14,1.14,0,0,1-1.14-1.14V60.791c0-.661-2.8-2.279-7.977-2.279S4.279,60.13,4.279,60.791V64.21A1.14,1.14,0,1,1,2,64.21V60.791c0-2.992,5.159-4.558,10.256-4.558S22.512,57.8,22.512,60.791V64.21A1.14,1.14,0,0,1,21.372,65.349ZM12.256,55.093a5.7,5.7,0,1,1,5.7-5.7,5.7,5.7,0,0,1-5.7,5.7Zm0-9.116A3.419,3.419,0,1,0,15.675,49.4,3.419,3.419,0,0,0,12.256,45.977ZM45.3,65.349a1.14,1.14,0,0,1-1.14-1.14V60.791c0-.661-2.8-2.279-7.977-2.279S28.21,60.13,28.21,60.791V64.21a1.14,1.14,0,1,1-2.279,0V60.791c0-2.992,5.159-4.558,10.256-4.558S46.442,57.8,46.442,60.791V64.21A1.14,1.14,0,0,1,45.3,65.349ZM36.187,55.093a5.7,5.7,0,1,1,5.7-5.7,5.7,5.7,0,0,1-5.7,5.7Zm0-9.116A3.419,3.419,0,1,0,39.605,49.4,3.419,3.419,0,0,0,36.187,45.977ZM69.233,65.349a1.14,1.14,0,0,1-1.14-1.14V60.791c0-.661-2.8-2.279-7.977-2.279S52.14,60.13,52.14,60.791V64.21a1.14,1.14,0,1,1-2.279,0V60.791c0-2.992,5.159-4.558,10.256-4.558S70.373,57.8,70.373,60.791V64.21A1.14,1.14,0,0,1,69.233,65.349ZM60.117,55.093a5.7,5.7,0,1,1,5.7-5.7,5.7,5.7,0,0,1-5.7,5.7Zm0-9.116A3.419,3.419,0,1,0,63.536,49.4a3.419,3.419,0,0,0-3.419-3.419Z" transform="translate(0 5.024)" fill="#fff"/>
  </g>
</svg>
