<svg id="svgexport-17" xmlns="http://www.w3.org/2000/svg" width="57.184" height="54.801" viewBox="0 0 57.184 54.801">
  <path id="Path_25614" data-name="Path 25614" d="M112.678,85.5h2.383v16.679h-2.383ZM96,80.733h35.74v2.382H96Zm40.505-15.487a5.957,5.957,0,1,1,5.956-5.956A5.964,5.964,0,0,1,136.505,65.245Zm0-9.53a3.574,3.574,0,1,0,3.574,3.574A3.578,3.578,0,0,0,136.505,55.715Zm0,0" transform="translate(-85.278 -47.376)" fill="#fff"/>
  <path id="Path_25615" data-name="Path 25615" d="M304.624,215.881a1.169,1.169,0,0,1-.469-.1,1.19,1.19,0,0,1-.625-1.564l3.574-8.339a1.189,1.189,0,0,1,1.095-.722h8.339a3.579,3.579,0,0,0,3.574-3.574V186.1a2.385,2.385,0,0,0-2.383-2.383h-1.191c-.836,0-1.6.553-2.623,1.911-1.151,1.52-4.644,5.808-4.792,5.99a1.194,1.194,0,0,1-.924.438h-5.956a1.192,1.192,0,0,0-1.191,1.191v2.383a1.191,1.191,0,1,1-2.383,0v-2.383a3.578,3.578,0,0,1,3.574-3.574h5.389c.939-1.156,3.469-4.277,4.382-5.484,1.007-1.33,2.429-2.856,4.525-2.856h1.191a4.77,4.77,0,0,1,4.765,4.765v15.487a5.963,5.963,0,0,1-5.957,5.956h-7.554l-3.265,7.617A1.19,1.19,0,0,1,304.624,215.881Zm0,0" transform="translate(-265.311 -161.08)" fill="#fff"/>
  <path id="Path_25616" data-name="Path 25616" d="M299.862,320.112a1.193,1.193,0,0,1-1.129-1.569l3.95-11.852a4.756,4.756,0,0,1,4.52-3.257h3.381v-3.574a1.191,1.191,0,0,1,2.383,0v4.765a1.191,1.191,0,0,1-1.191,1.191H307.2a2.376,2.376,0,0,0-2.259,1.627L300.992,319.3A1.193,1.193,0,0,1,299.862,320.112Zm0,0" transform="translate(-265.313 -265.311)" fill="#fff"/>
  <path id="Path_25617" data-name="Path 25617" d="M46.46,83.115a1.191,1.191,0,0,1-.952-1.9l3.574-4.765a1.191,1.191,0,0,1,1.905,1.428l-3.574,4.765A1.184,1.184,0,0,1,46.46,83.115Zm-40.5-17.87a5.957,5.957,0,1,1,5.957-5.956A5.963,5.963,0,0,1,5.956,65.245Zm0-9.53A3.574,3.574,0,1,0,9.53,59.289,3.578,3.578,0,0,0,5.956,55.715ZM17.87,102.177a1.19,1.19,0,0,1-1.095-.722l-3.265-7.617H5.956A5.963,5.963,0,0,1,0,87.881V72.393a4.77,4.77,0,0,1,4.765-4.765H5.956c2.1,0,3.519,1.526,4.524,2.856.914,1.207,3.443,4.328,4.381,5.484h5.391a3.578,3.578,0,0,1,3.574,3.574v2.383a1.191,1.191,0,1,1-2.383,0V79.541a1.193,1.193,0,0,0-1.191-1.191H14.3a1.189,1.189,0,0,1-.923-.438c-.148-.181-3.642-4.47-4.792-5.991-1.027-1.357-1.787-1.91-2.625-1.91H4.765a2.385,2.385,0,0,0-2.383,2.383V87.881a3.579,3.579,0,0,0,3.574,3.574H14.3a1.189,1.189,0,0,1,1.095.721l3.574,8.34a1.191,1.191,0,0,1-.625,1.564,1.168,1.168,0,0,1-.469.1Zm0,0" transform="translate(0 -47.376)" fill="#fff"/>
  <path id="Path_25618" data-name="Path 25618" d="M98.437,320.112a1.193,1.193,0,0,1-1.131-.815l-3.95-11.853a2.379,2.379,0,0,0-2.26-1.628H86.523a1.191,1.191,0,0,1-1.191-1.191v-4.765a1.191,1.191,0,0,1,2.383,0v3.574H91.1a4.759,4.759,0,0,1,4.521,3.257l3.95,11.852a1.191,1.191,0,0,1-.753,1.507A1.211,1.211,0,0,1,98.437,320.112Zm0,0" transform="translate(-75.802 -265.311)" fill="#fff"/>
  <path id="Path_25619" data-name="Path 25619" d="M58.1,35.74a1.192,1.192,0,0,1-.955-.476L53.568,30.5a1.191,1.191,0,0,1,1.906-1.428l3.574,4.765a1.191,1.191,0,0,1-.952,1.9Zm27.4-4.765A1.19,1.19,0,0,1,84.3,29.783V21.444a4.77,4.77,0,0,0-4.765-4.765H72.391a4.77,4.77,0,0,0-4.765,4.765v3.574a1.191,1.191,0,1,1-2.382,0V21.444A7.155,7.155,0,0,1,72.391,14.3h7.148a7.155,7.155,0,0,1,7.148,7.148v8.339A1.19,1.19,0,0,1,85.5,30.974Zm-9.53-19.061a5.957,5.957,0,1,1,5.956-5.957A5.964,5.964,0,0,1,75.965,11.913Zm0-9.531a3.574,3.574,0,1,0,3.574,3.574A3.578,3.578,0,0,0,75.965,2.383Zm0,0" transform="translate(-47.373)" fill="#fff"/>
  <path id="Path_25620" data-name="Path 25620" d="M245.332,170.668h2.383v2.383h-2.383Zm0,0" transform="translate(-217.932 -151.607)" fill="#fff"/>
</svg>
