<svg xmlns="http://www.w3.org/2000/svg" width="34.683" height="33.558" viewBox="0 0 34.683 33.558">
  <g id="svgexport-7_-_2023-01-06T112436.367" data-name="svgexport-7 - 2023-01-06T112436.367" transform="translate(-6.9 -15.405)">
    <g id="Group_75486" data-name="Group 75486" transform="translate(7.5 16.005)">
      <path id="Path_1345" data-name="Path 1345" d="M275.376,84.2h-3.045a.464.464,0,0,1-.464-.464V80.691a.464.464,0,0,0-.464-.464h-2.071a.464.464,0,0,0-.464.464v3.045a.464.464,0,0,1-.464.464H265.36a.464.464,0,0,0-.464.464v2.071a.464.464,0,0,0,.464.464H268.4a.464.464,0,0,1,.464.464v3.045a.464.464,0,0,0,.464.464H271.4a.464.464,0,0,0,.464-.464V87.662a.464.464,0,0,1,.464-.464h3.045a.464.464,0,0,0,.464-.464V84.663A.464.464,0,0,0,275.376,84.2Z" transform="translate(-247.555 -75.9)" fill="none" stroke="#16302d" stroke-linecap="round" stroke-linejoin="round" stroke-width="1.2"/>
      <path id="Path_1346" data-name="Path 1346" d="M69.472,264.591a1.7,1.7,0,1,0,1.7,1.7A1.7,1.7,0,0,0,69.472,264.591Z" transform="translate(-63.707 -247.843)" fill="none" stroke="#16302d" stroke-linecap="round" stroke-linejoin="round" stroke-width="1.2"/>
      <path id="Path_1347" data-name="Path 1347" d="M156.808,264.71a1.7,1.7,0,1,0,1.064,1.817A3.514,3.514,0,0,1,156.808,264.71Z" transform="translate(-144.576 -247.843)" fill="none" stroke="#16302d" stroke-linecap="round" stroke-linejoin="round" stroke-width="1.2"/>
      <path id="Path_1348" data-name="Path 1348" d="M23.153,158.85h2.17a3.518,3.518,0,0,0,3.518-3.518v-4.786H23.16a3.518,3.518,0,0,1-3.518-3.518v-7.776H11.018A3.518,3.518,0,0,0,7.5,142.771v12.561a3.518,3.518,0,0,0,3.518,3.518h.733a1.148,1.148,0,0,1,.931.477l2.51,3.483a1.145,1.145,0,0,0,2.074-.67v-2.162a1.128,1.128,0,0,1,1.128-1.128h2.4" transform="translate(-7.5 -130.95)" fill="none" stroke="#16302d" stroke-linecap="round" stroke-linejoin="round" stroke-width="1.2"/>
      <path id="Path_1349" data-name="Path 1349" d="M209.072,24.624v-5.1a3.518,3.518,0,0,0-3.518-3.518H191.249a3.518,3.518,0,0,0-3.518,3.518V32.084a3.518,3.518,0,0,0,3.518,3.518h6.929a1.128,1.128,0,0,1,1.128,1.128v2.162a1.145,1.145,0,0,0,2.074.67l2.51-3.483a1.148,1.148,0,0,1,.931-.477h.733a3.518,3.518,0,0,0,3.518-3.518v-5.1" transform="translate(-175.589 -16.005)" fill="none" stroke="#16302d" stroke-linecap="round" stroke-linejoin="round" stroke-width="1.2"/>
    </g>
  </g>
</svg>
